<svg width="36" height="36" viewBox="0 0 36 36" fill="none" xmlns="http://www.w3.org/2000/svg">
<g clip-path="url(#clip0_590_2210)">
<path d="M34.5257 3.54316C34.2412 4.86213 33.6464 7.24144 33.155 9.62075C33.0429 10.3286 33.0871 11.0524 33.2843 11.7414C34.086 14.638 34.9654 17.5345 35.7671 20.4311C36.4395 22.7845 35.5602 24.8276 34.2153 26.6897C30.724 31.5776 25.7067 34.0604 19.9912 34.9914C14.7412 35.8449 10.2153 33.75 5.99983 30.8794C3.76577 29.394 1.95653 27.353 0.749825 24.9569C-0.0447848 23.453 -0.212133 21.6959 0.284311 20.069C1.18948 17.1466 2.04293 14.2242 2.87051 11.3018C3 10.7664 3 10.2078 2.87051 9.67246C2.405 7.24142 1.83603 4.81038 1.42224 2.35348C1.08603 0.284514 2.04293 -0.439612 4.06017 0.232802C5.17224 0.594871 6.23258 1.11211 7.34465 1.3966C8.50821 1.69318 9.69267 1.90069 10.8878 2.01729C12.1033 2.17246 13.3705 2.12073 14.6119 2.32762C16.9653 2.71556 19.2929 2.58625 21.6464 2.30177C23.9998 2.01729 26.1722 1.86213 28.3964 1.47419C29.4826 1.29316 30.5171 0.775906 31.5516 0.362113C33.8016 -0.517198 34.5774 0.0259184 34.5257 3.54316ZM24.2584 26.5087C22.5774 27.3104 21.2067 27.0001 19.836 26.3276C18.4653 25.6552 17.9222 24.4397 19.0084 22.9397C19.5257 22.2414 20.1205 21.5949 20.586 20.8966C21.0516 20.1983 21.0257 18.9828 19.7843 18.7759C18.5241 18.5775 17.24 18.5862 15.9826 18.8018C14.8188 19.0087 14.586 19.8104 15.2584 20.819C15.9309 21.8276 16.4998 22.4483 17.0947 23.3018C17.6895 24.1552 17.5602 25.5776 16.3188 26.1983C15.0774 26.819 13.1895 27.4656 11.5084 26.4828C13.086 27.8794 14.7929 27.9569 16.4998 26.9225C17.5084 26.2759 18.2843 26.2501 19.3447 26.9225C21.1291 28.0345 22.7326 27.8276 24.2584 26.5087ZM32.1981 8.71558C33.3102 6.7242 33.8533 4.50003 33.4136 2.09486C33.3878 1.8621 32.6378 1.47418 32.5602 1.52591C31.2153 2.76729 29.9222 4.03451 28.655 5.32762C28.5257 5.48279 28.655 6.00003 28.8102 6.23279C28.9653 6.46555 29.3533 6.25867 29.6119 6.15522C29.8705 6.05178 30.3619 5.71556 30.8533 5.43107C31.2153 6.67245 30.3102 8.17247 32.1981 8.71558ZM5.06879 5.48282C5.35997 5.67368 5.67243 5.8299 5.99983 5.94831C6.38776 6.05176 6.82741 6.07764 7.21534 6.15522C7.16362 5.71557 7.24121 5.1466 6.98259 4.88798C5.8843 3.75914 4.72753 2.68869 3.51707 1.68107C3.36189 1.55176 2.53431 1.8104 2.48258 1.99144C2.05298 4.29771 2.48555 6.68141 3.6981 8.68969C5.50844 8.14658 4.52569 6.56902 5.06879 5.48282ZM9.49121 15.8018C10.7326 17.5604 12.6205 18.4656 13.9395 17.9742C15.2584 17.4828 15.5688 17.1207 15.4912 16.5259C13.3964 17.3535 11.586 15.8535 9.49121 15.8018ZM26.4567 15.8276C24.2843 15.8535 22.4222 17.3793 20.1722 16.7069C20.7929 17.25 21.4912 17.8966 22.2671 18.0259C24.1033 18.3104 25.2929 17.1466 26.4567 15.8276Z" fill="white"/>
</g>
<defs>
<clipPath id="clip0_590_2210">
<rect width="36" height="35.1983" fill="white"/>
</clipPath>
</defs>
</svg>
