<svg width="65" height="65" viewBox="0 0 65 65" fill="none" xmlns="http://www.w3.org/2000/svg">
<path d="M45.4341 18.0306C44.6601 15.9306 43.6379 13.9307 42.3893 12.0733C41.3567 10.4848 40.0064 10.6701 38.9473 12.2851C38.7448 12.5211 38.5836 12.7897 38.4708 13.0794C37.7029 15.7271 35.7966 16.7332 33.2549 16.6538C31.6663 16.6008 29.9983 16.442 28.4891 15.9389C27.8801 15.7536 27.6154 14.5092 27.1653 13.7678C26.7152 13.0265 26.5033 12.6294 26.1327 12.0733C25.153 10.723 23.9086 10.5907 22.9025 11.941C21.8964 13.2913 21.0756 14.4827 20.5726 15.9125C18.931 20.3605 17.4483 24.8615 15.9921 29.389C15.2508 31.7189 14.7213 34.1283 14.1123 36.4053C14.3241 37.279 14.4035 37.9939 14.6683 38.6293C15.7803 41.5682 17.7661 43.8717 20.3343 45.6191C24.6765 48.5316 29.3628 50.7291 34.764 49.8289C40.6948 48.8758 45.8313 46.2811 49.3791 41.1976C50.7559 39.2383 51.5767 37.1467 50.8089 34.7373C49.0614 29.1507 47.3404 23.5642 45.4341 18.0306ZM34.4993 30.9247L36.1673 31.613L35.3465 32.4603L34.1816 31.2424L34.4993 30.9247ZM33.8374 33.2546C35.1347 33.4135 35.426 34.2077 34.7376 35.3198C34.4198 35.8493 34.0492 36.3259 33.6785 36.8289C33.3553 37.2265 33.0547 37.6419 32.7783 38.0733C32.7064 38.1823 32.6444 38.2975 32.593 38.4175C32.2752 39.1854 32.6194 39.6619 33.652 40.8269H29.9188C31.984 39.5825 32.037 39.0529 30.4219 36.9348C29.9774 36.3894 29.5705 35.8144 29.204 35.2138C28.648 34.2342 28.9657 33.387 30.0512 33.2546C31.3083 33.0957 32.5803 33.0957 33.8374 33.2546ZM29.4952 30.9511L29.7864 31.2424L28.3832 32.9633C28.1449 32.4603 27.986 32.1161 27.7742 31.613L29.4952 30.9511ZM21.1551 21.446L20.5991 21.1813C21.4463 18.9572 22.2936 16.7067 23.2203 14.5092C23.3206 14.3043 23.4653 14.1242 23.6439 13.9823C23.8225 13.8403 24.0306 13.7399 24.2528 13.6884C24.4911 13.6355 24.8883 14.165 25.1266 14.4827C25.3571 14.9004 25.535 15.3451 25.6561 15.8065C25.9209 16.5214 25.6826 16.9715 24.9148 17.1568C23.4585 17.4746 23.0614 18.9308 22.1877 19.8574C21.764 20.334 21.4993 20.9165 21.1551 21.446ZM23.3262 29.8127C24.3587 30.501 25.8414 30.2892 26.7152 31.2953C26.6357 31.4807 26.5563 31.6395 26.5033 31.7984L23.0879 30.3157L23.3262 29.8127ZM34.9494 46.2016C33.7579 47.7902 29.8394 47.499 28.6744 45.8045C27.5095 44.11 26.4239 42.2566 25.1266 40.2179L27.5624 41.7006C27.6713 42.1121 27.8221 42.5114 28.0125 42.8921C28.4361 43.6334 29.1245 43.8187 29.5482 42.998C29.9718 42.1772 30.2895 42.3625 30.7661 42.3361C31.7722 42.2831 32.8048 42.3096 34.1021 42.3096C33.9697 41.8065 33.8374 41.3564 33.705 40.8798H34.2345C34.1816 41.1711 34.0492 41.5418 34.1551 41.78C34.4277 42.3554 34.7372 42.9126 35.0818 43.4481C35.5054 43.0509 35.8761 42.6273 36.2997 42.2302L38.3649 40.3503L38.6561 40.6151C37.4382 42.4949 36.2997 44.4277 34.9494 46.2016ZM39.4504 33.8106L37.3852 31.1365C37.3323 31.2953 37.3587 31.0306 37.4382 31.0041C38.8944 30.7393 38.6826 29.7067 38.4972 28.7006C38.2346 27.361 38.0402 26.009 37.9148 24.6497C38.4178 26.1324 38.9473 27.5886 39.3445 29.0713C39.5563 29.8921 39.8475 30.2627 40.8007 29.8921C39.8211 30.9511 38.2854 31.719 39.4504 33.8106ZM43.9249 21.2607L43.2101 20.2546L42.0981 18.9043C41.9657 18.7454 41.648 18.5866 41.6744 18.4542C41.7803 17.4481 40.9331 17.4746 40.3506 17.1304C39.7681 16.7862 39.4239 16.2302 39.5034 15.9654C39.8475 15.1446 40.43 14.4033 40.9596 13.6354C41.232 13.6939 41.4809 13.8322 41.6744 14.0326C43.0428 16.17 43.92 18.5845 44.2427 21.1019L43.9249 21.2607Z" fill="white"/>
<path d="M63.914 32.0367C61.743 31.5072 59.5189 31.1365 57.4008 30.4481C55.2827 29.7597 53.8 31.4807 51.8672 32.4603C53.8 33.8371 55.3356 35.2668 57.6656 34.4725C58.301 34.2607 58.9629 34.2078 59.5984 34.0489L64.9996 32.6721C64.7174 32.3468 64.3359 32.1234 63.914 32.0367Z" fill="white"/>
<path d="M7.41344 30.5805C5.29532 31.2424 3.04481 31.5866 0.873728 32.1161C0.661915 32.1426 0.476578 32.3809 0 32.6986C2.67413 33.3075 5.08351 33.7312 7.36049 34.4725C9.63748 35.2139 11.3055 33.8371 13.2648 32.5397C11.3585 31.0835 9.79633 29.8656 7.41344 30.5805Z" fill="white"/>
<path d="M34.631 7.54582C33.9955 5.26884 33.5189 2.93891 32.9629 0.635444C32.91 0.476585 32.7246 0.370672 32.4334 0C31.7979 2.67413 31.3478 5.13646 30.6595 7.51935C29.9711 9.90225 31.3214 11.332 32.6452 13.2648C33.8896 11.332 35.2929 9.87576 34.631 7.54582Z" fill="white"/>
<path d="M30.6597 57.5601C31.0569 58.7251 31.1628 59.9695 31.4805 61.1609C31.7982 62.3524 32.1424 63.5968 32.4866 64.7882H32.8838C33.4662 62.3524 33.9163 59.89 34.6047 57.5071C35.2931 55.1243 33.8369 53.721 32.7779 52.0265C30.8715 53.8534 29.9978 55.7597 30.6597 57.5601Z" fill="white"/>
<path d="M13.7412 30.3156C14.0324 30.4215 14.6414 30.1833 14.7208 29.9714C15.621 27.2444 16.4683 24.5437 17.2626 21.7902C17.3685 21.4195 17.1302 20.9429 17.0508 20.5193C16.5212 20.6781 15.7534 20.6781 15.4622 21.0488C13.7941 23.2199 13.0263 25.7881 12.4968 28.4093C12.3379 29.4419 12.8675 30.0509 13.7412 30.3156Z" fill="white"/>
<path d="M50.1464 22.2404C49.9327 21.7098 49.6077 21.2313 49.1932 20.8371C48.9814 20.5988 48.5313 20.6253 48.1871 20.5459C48.1077 20.8636 47.9224 21.1813 48.0018 21.4461C48.8226 24.1202 49.6433 26.7944 50.5435 29.442C50.6759 29.8127 51.2849 30.3952 51.3643 30.3422C51.8409 30.0775 52.2116 29.6538 52.8205 29.0978C51.8939 26.7149 51.0466 24.4644 50.1464 22.2404Z" fill="white"/>
<path d="M28.2507 50.3585C26.2385 49.5907 24.2792 48.7964 22.267 48.0551C21.7904 47.8962 21.2609 47.9227 20.7578 47.8433C20.9696 48.3198 21.0755 48.9553 21.4462 49.1936C23.742 50.772 26.3683 51.8044 29.1244 52.2119C29.9187 52.3443 30.3688 52.053 30.5806 51.0205C29.7599 50.7822 28.992 50.6233 28.2507 50.3585Z" fill="white"/>
<path d="M40.4032 49.3258C38.5498 49.9877 36.67 50.5173 34.7637 51.0997C34.8961 51.9999 35.3991 52.2912 36.1669 52.1588C36.9347 52.0264 37.7555 51.894 38.4704 51.5763C40.2973 50.7555 42.1242 49.8818 43.8981 48.9287C44.2158 48.7698 44.3482 48.2138 44.56 47.8167C44.1629 47.8696 43.7392 47.8431 43.395 48.002C42.3889 48.3991 41.4358 48.9816 40.4032 49.3258Z" fill="white"/>
<path d="M14.9062 50.2526C18.1099 49.8555 19.169 48.7434 18.7983 46.3076C16.0712 46.2546 15.171 47.1549 14.9062 50.2526Z" fill="white"/>
<path d="M50.4377 14.6945C47.2075 15.1181 46.2809 16.0713 46.5456 18.5865C49.3257 18.7983 49.6434 18.4012 50.4377 14.6945Z" fill="white"/>
<path d="M46.4395 46.5193C46.6777 49.4317 46.8896 49.6435 50.358 50.3319C50.358 47.393 48.7164 45.8574 46.4395 46.5193Z" fill="white"/>
<path d="M18.2688 18.6659C18.4276 18.1099 18.7189 17.5804 18.6924 17.0509C18.613 15.8065 16.892 14.7739 14.668 14.7474C15.1181 15.9124 15.3034 17.0774 15.9388 17.8716C16.5743 18.6659 17.4745 18.4277 18.2688 18.6659Z" fill="white"/>
<path d="M16.6798 44.3748C14.8265 41.5153 12.7348 38.7882 13.2114 34.9756C12.8407 35.3992 12.4965 35.8758 12.576 36.2729C13.1585 39.3707 14.2705 42.2037 16.6798 44.3748Z" fill="white"/>
<path d="M31.3216 15.4093C30.7391 13.1853 29.6271 12.0997 28.1709 12.391C29.6006 15.7535 29.177 15.4887 31.3216 15.4093Z" fill="white"/>
<path d="M36.8292 12.497C35.5583 12.0469 34.4198 13.2118 33.9697 15.4094C36.3261 15.5153 35.8231 15.4623 36.8292 12.497Z" fill="white"/>
<path d="M33.0423 44.9043L32.8835 45.0631H31.0301C30.8977 44.6395 30.8713 44.2159 30.633 43.9511C30.3963 43.763 30.1123 43.6439 29.8122 43.6069C29.5474 44.1364 29.1768 44.6924 29.1768 45.2484C29.1768 45.8045 29.6798 46.3605 30.024 46.387C31.3173 46.5325 32.6228 46.5325 33.9161 46.387C34.2867 46.334 34.7368 45.4338 34.7633 44.9043C34.7898 44.3747 34.2867 44.0041 34.022 43.554L33.0423 44.9043Z" fill="white"/>
</svg>
