<svg width="48" height="48" viewBox="0 0 48 48" fill="none" xmlns="http://www.w3.org/2000/svg">
<path d="M40.7751 23.7221C39.3856 19.4273 38.0467 15.1073 36.5309 10.8631C35.8722 8.9569 35.0436 7.11372 34.0551 5.35577C32.7667 3.10735 30.9225 2.34943 29.6593 5.4568C28.7246 7.78101 27.1582 8.84208 24.7835 8.81682C23.5961 8.81682 22.3835 8.5642 21.1961 8.51367C19.554 8.43788 19.3267 7.07366 18.7456 6.01261C18.5232 5.55797 18.27 5.11904 17.9877 4.69891C16.8761 3.03154 15.6635 2.95577 14.5014 4.59788C13.7435 5.70946 12.9603 6.87154 12.5561 8.10944C10.5603 14.0463 8.71613 20.0084 6.79613 25.9705C6.11402 28.0926 6.66981 30.0126 7.78139 31.7305C11.6214 37.5663 17.4572 39.941 24.3793 40.901C25.8698 40.5726 27.6382 40.2442 29.3561 39.7389C33.8782 38.3495 37.6677 35.8989 40.3203 31.8821C41.4067 30.24 42.0888 28.4463 41.4825 26.4C41.2046 25.5158 41.053 24.6063 40.7751 23.7221ZM13.8698 12.2779C13.6424 12.6063 13.3898 12.9095 13.1624 13.2126C13.2314 10.7332 14.0023 8.32413 15.3856 6.26524C15.5202 6.11624 15.6961 6.01068 15.8909 5.96207C16.3961 6.56838 16.9519 7.12418 17.3309 7.80629C17.7098 8.4884 17.8109 8.94313 16.9267 9.22102C15.3856 9.70102 14.7288 11.0905 13.8698 12.2779ZM16.0424 21.9537C18.013 21.8021 19.7309 23.4442 21.6761 22.4589C21.7014 22.8884 20.9182 23.621 20.1603 23.8989C18.8972 24.3284 17.1288 23.52 16.0424 21.9537ZM26.1477 32.9684C24.6824 32.0842 23.4951 32.0084 21.954 32.9179C20.413 33.8274 19.453 33.4231 17.9624 32.3621C19.554 33.0695 21.0193 32.6905 22.4593 31.9326C23.8993 31.1747 23.9498 30.1389 23.1667 28.9768C22.3835 27.8147 21.9288 27.4105 21.373 26.5515C20.8172 25.6926 21.0446 24.8589 22.0046 24.7326C23.3718 24.5514 24.7575 24.5599 26.1224 24.7579C27.0319 24.8842 27.2088 25.7684 26.7288 26.5515C26.2438 27.2937 25.721 28.0104 25.1624 28.6989C24.0256 30.1642 24.253 31.4021 25.9709 32.0589C27.1077 32.4884 28.3456 32.6147 29.4572 32.8674C28.969 33.1889 28.4011 33.3685 27.8168 33.3864C27.2324 33.4042 26.6546 33.2595 26.1477 32.9684ZM26.4509 22.8884L31.9835 21.9031C30.7456 24.2526 27.9161 24.6821 26.4509 22.8884ZM35.0403 13.44C34.7601 13.1717 34.4985 12.8848 34.2572 12.581C33.6509 11.6463 33.1709 10.6358 32.4382 9.82734C31.7056 9.01892 31.1751 9.2463 30.3667 8.89262C30.6446 8.0842 30.8214 7.27576 31.2003 6.54313C31.5793 5.8105 32.4382 5.65893 32.8172 6.51787C33.7772 8.71577 34.6109 10.9895 35.4951 13.2126L35.0403 13.44Z" fill="white"/>
<path d="M7.17454 20.8926C7.90717 18.6695 8.58928 16.421 9.32191 14.1726C9.77664 12.7326 10.3072 11.2926 10.7872 9.82735L10.484 9.59998C9.95349 10.2063 9.42296 10.7621 8.9177 11.3684C6.78971 13.8753 5.36059 16.8991 4.77454 20.1347C4.54717 21.221 5.17875 21.6 5.93664 21.9032C6.69454 22.2063 6.97243 21.4737 7.17454 20.8926Z" fill="white"/>
<path d="M10.6608 36.4295C9.37236 35.2927 8.21025 33.979 6.97236 32.7411L6.71973 32.8674C7.57867 34.08 8.3871 35.3432 9.32183 36.48C12.2018 39.8906 15.9408 41.8358 20.2608 42.6695C20.766 42.7706 21.3976 42.2653 21.9787 42.0379C21.5239 41.76 21.1197 41.3306 20.6397 41.2295C16.926 40.4211 13.5408 38.9558 10.6608 36.4295Z" fill="white"/>
<path d="M42.8459 20.0084C42.4173 17.4363 41.4346 14.9882 39.9659 12.8336C39.2838 11.7978 38.3743 10.9389 37.5659 9.97888C37.5267 10.0345 37.4929 10.0938 37.4648 10.1557L41.5827 22.0294C42.8712 21.6 43.048 21.2968 42.8459 20.0084Z" fill="white"/>
<path d="M26.0967 41.8611C26.3998 42.998 27.2588 42.7706 28.0672 42.5938C32.7156 41.6338 36.303 38.9559 39.3346 35.4695C39.5356 35.1723 39.713 34.8598 39.8651 34.5348C37.7682 36.1769 35.7472 37.8695 33.4735 39.0569C31.1998 40.2443 28.5977 40.9264 26.0967 41.8611Z" fill="white"/>
<path d="M42.6943 23.8989C44.3112 25.8947 46.0291 25.8694 47.9996 23.8989C45.9028 22.1305 44.5891 22.1052 42.6943 23.8989Z" fill="white"/>
<path d="M24.126 5.25475C25.9955 3.36001 25.9702 2.47579 24.0502 0C22.1302 2.24842 22.1555 4.11791 24.126 5.25475Z" fill="white"/>
<path d="M5.28 23.9495C3.63789 22.0548 2.52632 22.0548 0 23.9495C2.50105 25.92 3.58737 25.8948 5.28 23.9495Z" fill="white"/>
<path d="M24.1266 47.9242C26.0972 44.6905 25.9456 44.6147 24.0761 42.6694C22.1308 44.4126 22.1561 46.2063 24.1266 47.9242Z" fill="white"/>
<path d="M23.015 7.60417C22.3834 6.61891 21.9287 5.73469 21.3476 4.95154C21.1708 4.72417 20.6908 4.67364 20.3371 4.69891C19.9834 4.72417 19.9834 5.1284 19.9834 5.35577C20.1097 6.97261 21.0697 7.75575 23.015 7.60417Z" fill="white"/>
<path d="M28.194 4.92633C26.8045 4.44633 25.7687 5.48213 25.415 7.6295C26.9561 7.75582 27.5877 7.17475 28.194 4.92633Z" fill="white"/>
<path d="M6.03823 30.8463C5.83612 29.4821 5.63402 27.9664 5.43191 26.5011C4.5477 26.9306 4.8256 29.3811 6.03823 30.8463Z" fill="white"/>
</svg>
