<svg width="35" height="35" viewBox="0 0 35 35" fill="none" xmlns="http://www.w3.org/2000/svg">
<path d="M34.7015 19.8448C34.0711 17.7004 33.6928 15.4284 32.8355 13.3605C31.9781 11.2927 32.1294 9.32697 32.785 7.2336C33.2894 5.65082 33.4911 3.91486 33.6424 2.22996C33.7937 0.545061 32.8355 -0.246327 31.1208 0.289779C30.8358 0.36918 30.5575 0.471612 30.2887 0.596112C27.9435 1.59174 25.5732 2.35761 22.976 2.0768C22.6372 2.09569 22.3002 2.13834 21.9673 2.20444C19.7231 2.30655 17.4788 2.68948 15.2598 2.48525C11.2252 2.15338 7.14023 2.05125 3.38303 0.21318C2.12222 -0.399512 1.164 0.366377 1.29008 1.77046C1.51703 3.91488 2.02135 6.03377 2.32395 8.17819C2.50046 9.30146 2.77783 10.5268 2.52567 11.6246C1.99172 13.9781 1.31807 16.2969 0.508381 18.5684C-0.575913 21.8616 0.104922 24.6698 2.27351 27.2993C6.23245 32.1497 11.5278 34.1155 17.5545 34.9834C18.4623 34.8047 19.4961 34.626 20.5048 34.3963C25.7245 33.2475 30.1878 30.8478 33.3398 26.3292C34.7015 24.3634 35.4327 22.2701 34.7015 19.8448ZM22.0178 7.9229C22.5221 8.15266 22.9255 8.58663 23.6316 9.14826C23.0516 9.45461 22.6986 9.73543 22.5473 9.65884C22.065 9.34008 21.6095 8.98147 21.1856 8.58664C21.463 8.35688 21.8665 7.84631 22.0178 7.9229ZM12.8139 7.94842C12.9399 7.87184 13.3686 8.25478 13.999 8.66324C13.1921 9.12276 12.7382 9.48016 12.2087 9.68439C12.0826 9.73545 11.78 9.32697 11.5531 9.14826C11.9354 8.70932 12.3575 8.30763 12.8139 7.94842ZM5.70291 5.93164C5.39881 5.79881 5.10395 5.6453 4.82034 5.47214C4.56818 6.64647 4.34123 7.74419 4.03864 9.12274C2.65175 7.79524 2.52567 6.36563 2.27351 5.03813C2.12221 4.22121 2.19787 3.35322 2.19787 2.51077C2.19787 1.66832 2.72741 1.15777 3.48389 1.77046C4.59531 2.72556 5.64795 3.74863 6.63591 4.83392C6.91329 5.11474 6.81242 5.72741 6.88807 6.18693C6.48779 6.12895 6.09183 6.04366 5.70291 5.93164ZM11.0235 14.9688H14.2764C14.2764 15.071 14.3016 15.1475 14.3016 15.2241H11.0487C11.0487 15.1475 11.0235 15.071 11.0235 14.9688ZM19.9752 25.8186C19.8996 26.1505 19.7735 26.7376 19.6979 27.3503C19.4709 28.6778 18.5127 29.699 17.4536 29.699C16.3946 29.699 15.3607 28.831 15.0833 27.478C14.9572 26.8908 14.8564 26.3292 14.7555 25.742L11.6791 25.1293C13.0156 24.874 14.3016 24.7719 15.4616 24.3379C17.1258 23.7252 17.378 22.4743 16.3441 21.0192C15.8146 20.2533 15.2346 19.513 14.7051 18.7726C14.1755 18.0323 14.4277 17.1133 15.285 16.9856C16.6716 16.7772 18.0798 16.76 19.4709 16.9346C20.2274 17.0622 20.7317 17.8025 20.1013 18.696C19.4709 19.5896 19.0423 20.2023 18.4875 20.9426C17.4032 22.3977 17.6301 23.5465 19.244 24.3379C20.8578 25.1293 21.9925 25.2825 23.4551 24.5166L23.5307 24.9506L19.9752 25.8186ZM23.7577 15.2241H20.5804V14.7902L23.7577 14.9944V15.2241ZM31.146 8.73981C30.9784 8.67088 30.8179 8.58537 30.6669 8.48452L30.5408 8.33136L30.4652 8.25476L30.4147 8.17819L30.3643 8.10159L30.3139 7.99947L30.2634 7.89738C30.2634 7.84632 30.2382 7.82079 30.2382 7.76973V7.69313C30.2382 7.64208 30.213 7.59102 30.213 7.53997V7.41232C30.2114 7.39265 30.2024 7.37434 30.1878 7.36125V6.51882C30.1835 6.33067 30.1666 6.14301 30.1374 5.95716C30.1327 5.87834 30.1157 5.8008 30.0869 5.72743L30.0113 5.49766C29.5873 5.75219 29.1496 5.9823 28.7 6.18693C28.4731 6.28904 28.0696 6.31457 27.9436 6.18693C27.8175 6.05928 27.7418 5.65083 27.8175 5.39554C28.1201 4.17016 30.8686 1.77045 32.2051 1.56622C33.0372 3.35324 32.5329 6.97832 31.146 8.73981Z" fill="white"/>
</svg>
