<svg width="52" height="54" viewBox="0 0 52 54" fill="none" xmlns="http://www.w3.org/2000/svg">
<path opacity="0.1" d="M52 26.7775C52 27.9633 48.9092 30.1988 48.8509 30.5778C47.4221 40.0836 39.7144 47.4996 30.3642 49.2297C30.0532 49.288 27.7788 53.8077 26.2042 53.8077C24.6296 53.8077 22.5885 49.2977 22.365 49.2589C11.1388 47.2761 4.37399 35.1752 3.65474 30.2959C3.62558 30.1113 -0.0289852 28.2062 0.000173562 27.001C0.0293323 25.7958 3.47006 23.949 3.4895 23.7935C3.6839 22.0343 4.02408 18.924 5.80277 15.8915C6.9594 13.9282 6.97884 13.8213 8.01884 12.5383C8.18407 12.3342 7.48426 9.74874 8.98107 8.34912C10.6431 6.78426 12.8398 8.15474 13.2091 7.8826C15.2113 6.46354 17.2913 5.38462 19.5463 4.68481C20.5265 4.37909 21.5268 4.14202 22.5399 3.9753C22.6565 3.96558 24.8143 0 26.35 0C27.6621 0 29.7324 3.91698 30.092 3.9753C31.0932 4.13082 32.6774 4.38352 34.4756 5.13192C37.3817 6.34687 37.6344 6.56073 39.4326 7.8826C39.5492 7.97007 42.2027 7.1925 43.5926 8.40744C45.2157 9.8265 44.3701 12.3925 44.6423 12.7424C47.1596 15.8915 48.569 19.2837 49.0064 23.4145C49.0355 23.6866 52 25.7861 52 26.7775Z" fill="white"/>
<path fill-rule="evenodd" clip-rule="evenodd" d="M41.9335 9.28182C42.7872 9.25158 44.386 9.19493 41.4735 20.2265C41.4049 20.483 41.8398 21.7465 42.4063 23.3927C43.3642 26.1756 44.6985 30.0523 44.613 32.0066C44.4866 34.8933 42.2705 44.3893 26.2721 45.1669C9.72935 43.8742 8.03814 34.1935 8.12561 31.8025C8.19448 29.9488 9.32052 26.4857 10.1873 23.8199C10.7886 21.9707 11.2651 20.5051 11.1776 20.2265C7.83742 9.44098 9.97838 9.33109 10.8173 9.28802C10.8524 9.28622 10.8851 9.28454 10.9151 9.2822C11.6635 9.22389 17.5731 11.4983 17.5731 11.4983C20.0578 11.2981 24.6742 12.0208 25.9731 12.2241C26.1883 12.2578 26.3124 12.2772 26.3207 12.2758C26.3217 12.2757 26.3243 12.2752 26.3286 12.2745C26.5748 12.2325 32.2307 11.2689 35.078 11.4983C35.078 11.4983 40.9876 9.22389 41.736 9.2822C41.7943 9.28675 41.8612 9.28438 41.9335 9.28182ZM30.4321 15.4833C32.5509 13.831 34.1547 17.4758 33.3771 18.0784C32.5995 18.681 28.5756 16.9315 30.4321 15.4833ZM32.0756 21.3872C31.1599 21.3668 29.961 21.3401 29.4407 21.4025C28.9741 21.4608 29.3726 21.9663 29.5087 21.9663H29.7517C29.7517 21.9663 29.324 23.7255 30.9083 23.7255C32.4926 23.7255 32.2108 22.0051 32.2108 22.0051H32.9883C33.7367 22.0051 33.3674 21.4025 32.9786 21.4025C32.7644 21.4025 32.4428 21.3953 32.0756 21.3872ZM26.1846 19.7308C26.1822 19.8936 26.1798 20.0564 26.1749 20.2167V21.1498C26.1749 21.3151 26.1749 21.4706 26.1943 21.6358C26.2036 21.715 26.2174 21.7941 26.2314 21.8744C26.2466 21.9616 26.262 22.0501 26.2721 22.1412C26.28 22.1699 26.2971 22.1953 26.3208 22.2134C26.3445 22.2315 26.3735 22.2412 26.4033 22.2412C26.4331 22.2412 26.4621 22.2315 26.4858 22.2134C26.5095 22.1953 26.5266 22.1699 26.5345 22.1412C26.5413 22.0838 26.5492 22.0275 26.5571 21.9716C26.5719 21.8667 26.5865 21.763 26.5928 21.6552L26.622 21.179C26.622 21.0186 26.6196 20.8582 26.6171 20.6979C26.6147 20.5375 26.6123 20.3771 26.6123 20.2167C26.6123 19.896 26.6123 19.585 26.6026 19.2739V19.2738C26.6026 19.1086 26.6026 18.9434 26.5928 18.7879C26.591 18.7592 26.5899 18.7298 26.5888 18.7C26.5837 18.5691 26.5785 18.4323 26.5151 18.3214C26.5037 18.3034 26.4879 18.2885 26.4692 18.2781C26.4505 18.2678 26.4295 18.2624 26.4082 18.2624C26.3868 18.2624 26.3658 18.2678 26.3471 18.2781C26.3284 18.2885 26.3126 18.3034 26.3012 18.3214C26.2323 18.4334 26.2245 18.5759 26.2168 18.7152C26.2159 18.733 26.2149 18.7508 26.2138 18.7685C26.2089 18.8463 26.2065 18.9265 26.2041 19.0067C26.2016 19.0868 26.1992 19.167 26.1943 19.2448C26.1895 19.4052 26.187 19.568 26.1846 19.7308ZM22.5981 14.9584C24.4448 16.3969 20.4209 18.1562 19.6433 17.5536C18.8658 16.951 20.4695 13.3061 22.5981 14.9584ZM20.3811 21.3872C20.0139 21.3953 19.6923 21.4025 19.4781 21.4025C19.0893 21.4025 18.72 22.0051 19.4684 22.0051H20.2459C20.2459 22.0051 20.0515 23.7255 21.5484 23.7255C23.0452 23.7255 22.705 21.9663 22.705 21.9663H22.948C23.0841 21.9663 23.4826 21.4608 23.016 21.4025C22.4957 21.3401 21.2968 21.3668 20.3811 21.3872ZM12.1204 38.7034C12.2273 38.8103 12.3634 38.9464 12.5189 38.9756C12.6063 38.995 12.7327 38.9172 12.6841 38.8006C12.625 38.6815 12.5384 38.5782 12.4314 38.4993L12.1398 38.1883C11.936 37.9614 11.7476 37.7211 11.5761 37.469C11.206 36.9501 10.8809 36.4006 10.6041 35.8264C10.5653 35.7457 10.5246 35.665 10.4837 35.5841C10.3918 35.4017 10.2991 35.2179 10.225 35.0294C10.2142 35.0034 10.1944 34.9822 10.1692 34.9697C10.144 34.9572 10.1151 34.9542 10.0879 34.9613C10.0607 34.9684 10.0369 34.9851 10.021 35.0083C10.0052 35.0316 9.99822 35.0598 10.0015 35.0877C10.1431 35.6468 10.3623 36.1834 10.6527 36.6817C10.973 37.2707 11.3541 37.8245 11.7899 38.3341C11.8968 38.4604 12.0134 38.5965 12.1204 38.7034L12.1204 38.7034ZM12.5468 17.6825C12.5574 17.6825 12.5677 17.685 12.5772 17.6897C12.8396 17.816 13.6269 17.9812 13.2867 15.0459C13.2862 15.0333 13.2893 15.0207 13.2956 15.0097C13.3018 14.9987 13.311 14.9897 13.3221 14.9837C13.3332 14.9776 13.3458 14.9748 13.3584 14.9755C13.3711 14.9762 13.3833 14.9803 13.3936 14.9876L13.4022 14.9946C13.8284 15.3415 15.0598 16.3439 15.6583 15.6971C16.2609 15.0459 15.5125 13.7435 13.9379 12.1981C12.6063 10.8859 11.4692 10.468 10.9735 10.3319C10.9401 10.3234 10.9054 10.322 10.8715 10.3279C10.8376 10.3338 10.8053 10.3468 10.7768 10.3661C10.7484 10.3854 10.7243 10.4105 10.7062 10.4398C10.6882 10.4691 10.6766 10.5019 10.6721 10.536C10.4875 11.7704 9.87514 17.019 12.4022 18.5061C12.4132 18.509 12.4246 18.5094 12.4357 18.5074C12.4468 18.5054 12.4573 18.5011 12.4666 18.4946C12.4758 18.4881 12.4836 18.4797 12.4892 18.4699C12.4949 18.4602 12.4984 18.4493 12.4994 18.438C12.4733 18.2057 12.4667 17.9717 12.48 17.7382C12.4819 17.7279 12.4862 17.7181 12.4925 17.7097C12.4988 17.7013 12.507 17.6944 12.5165 17.6897C12.5259 17.685 12.5363 17.6825 12.5468 17.6825ZM13.91 40.094C13.9379 40.0818 13.9612 40.0611 13.9768 40.035C13.9926 40.0052 13.9983 39.9711 13.9931 39.9378C13.9878 39.9045 13.9719 39.8738 13.9476 39.8503C13.8969 39.8029 13.8415 39.7605 13.7824 39.7239L13.7047 39.6657H13.6852L13.6561 39.6365C13.6062 39.5995 13.5605 39.5572 13.52 39.5101L13.4811 39.4809H13.4714C13.4687 39.4664 13.462 39.4529 13.4519 39.4421L13.4228 39.4032C13.4131 39.3935 13.4131 39.4032 13.4131 39.4032C13.3971 39.3781 13.3727 39.3594 13.3442 39.3505C13.3157 39.3416 13.285 39.3431 13.2576 39.3546C13.2285 39.3674 13.2048 39.3899 13.1906 39.4183C13.1764 39.4467 13.1726 39.4792 13.1798 39.5101C13.2089 39.5854 13.2518 39.6546 13.3062 39.7143L13.4325 39.86L13.6172 39.9961L13.6949 40.0544L13.8213 40.103C13.8511 40.1094 13.8821 40.1062 13.91 40.094ZM37.3084 34.5103C37.4385 34.3223 37.5272 34.1939 37.576 34.1546C37.9356 33.8728 38.2855 33.0174 37.7315 32.8425C37.1775 32.6675 37.0608 33.795 37.0608 33.795C33.7993 38.7679 29.9514 36.4884 28.7075 35.7516C28.6021 35.6891 28.5153 35.6378 28.4493 35.6028C27.4093 35.0585 26.6997 33.2507 27.351 32.3468C27.4726 32.178 27.6559 31.94 27.8758 31.6545C28.8338 30.4108 30.4877 28.2639 30.7723 26.9913C31.1222 25.4264 26.3693 24.7947 26.3693 24.7947C26.3693 24.7947 21.6164 25.4167 21.9663 26.9913C22.2548 28.2896 24.0105 30.5529 24.9336 31.7429C25.13 31.9961 25.2887 32.2006 25.3876 32.337C25.9513 33.1146 25.3293 35.0488 24.2893 35.6028C24.2236 35.6376 24.1376 35.6884 24.0331 35.7502C22.7914 36.4846 18.941 38.7616 15.6777 33.795C15.6777 33.795 15.5514 32.6481 15.0071 32.8328C14.4628 33.0174 14.8127 33.8825 15.1626 34.1546C15.2113 34.1925 15.3016 34.3188 15.4343 34.5045C16.2551 35.653 18.6989 39.0724 22.9577 37.8675C24.0074 37.5662 26.4276 36.0305 26.4276 36.0305C26.4276 36.0305 28.634 37.537 29.8781 37.8967C34.1276 39.1096 36.5052 35.6716 37.3084 34.5103ZM40.1614 18.4478C40.1517 18.4964 40.2197 18.545 40.2586 18.5061C42.4552 16.951 42.1733 11.7704 41.9887 10.5458C41.9842 10.5116 41.9726 10.4788 41.9546 10.4496C41.9365 10.4203 41.9125 10.3951 41.884 10.3758C41.8555 10.3566 41.8232 10.3435 41.7893 10.3376C41.7554 10.3317 41.7207 10.3331 41.6874 10.3416C41.1917 10.4777 40.0545 10.8957 38.7229 12.1981C37.1483 13.7435 36.4388 15.0945 37.0025 15.6971C37.5662 16.2997 38.8492 15.3375 39.2672 14.9973C39.2776 14.9901 39.2897 14.9859 39.3024 14.9852C39.315 14.9845 39.3276 14.9873 39.3387 14.9934C39.3498 14.9994 39.359 15.0085 39.3652 15.0195C39.3715 15.0305 39.3746 15.043 39.3741 15.0556C39.0339 17.9909 39.8212 17.816 40.0739 17.6994C40.0826 17.6915 40.0935 17.6864 40.1051 17.6848C40.1168 17.6832 40.1286 17.6852 40.1391 17.6905C40.1496 17.6957 40.1583 17.704 40.164 17.7143C40.1697 17.7245 40.1722 17.7363 40.1711 17.748C40.1874 17.9811 40.1841 18.2152 40.1614 18.4478ZM43.3409 30.5158C43.329 30.5209 43.3186 30.5288 43.3105 30.5389C43.3013 30.5464 43.2938 30.5557 43.2883 30.5662C43.2828 30.5767 43.2795 30.5882 43.2786 30.6C43.2777 30.6119 43.2792 30.6237 43.283 30.6349C43.2868 30.6462 43.2929 30.6565 43.3008 30.6653C43.2978 30.6821 43.3013 30.6995 43.3105 30.7139V30.9083C43.3121 30.9489 43.3296 30.9873 43.3591 31.0152C43.3722 31.0308 43.3886 31.0432 43.4071 31.0516C43.4256 31.06 43.4457 31.0642 43.466 31.0638C43.5056 31.0613 43.5427 31.0438 43.5698 31.0149C43.5969 30.986 43.6119 30.9479 43.6118 30.9083C43.6134 30.8498 43.6102 30.7913 43.6021 30.7333L43.5632 30.6458C43.5434 30.6052 43.5085 30.5739 43.466 30.5584L43.4466 30.5389C43.4381 30.5294 43.4276 30.5218 43.4158 30.5168C43.4041 30.5118 43.3913 30.5094 43.3786 30.5098C43.3657 30.5086 43.3527 30.5107 43.3409 30.5158ZM43.6604 33.97C43.7548 33.6175 43.8102 33.2557 43.8257 32.8911C43.8338 32.7127 43.8273 32.5339 43.8062 32.3565C43.796 32.171 43.76 31.9878 43.6993 31.8122C43.641 31.6858 43.466 31.7636 43.466 31.8705C43.4661 32.0394 43.4758 32.2082 43.4952 32.376V32.8716C43.4789 33.2138 43.4235 33.553 43.33 33.8825C43.2433 34.2053 43.1228 34.5181 42.9703 34.8155C42.8922 34.9636 42.8045 35.1065 42.7079 35.2432C42.6735 35.2968 42.6285 35.3579 42.5836 35.4189C42.5145 35.5127 42.4458 35.6061 42.4163 35.6709C42.3677 35.7778 42.4746 35.9236 42.5913 35.8458C42.733 35.7383 42.8548 35.6067 42.9509 35.457C43.2764 35.0089 43.5168 34.5049 43.6604 33.97ZM30.1406 22.0049L30.9473 21.9854C30.9473 21.9854 30.889 22.3646 30.5196 22.3646C30.4708 22.3672 30.4219 22.3598 30.376 22.343C30.3301 22.3261 30.2882 22.3 30.2527 22.2663C30.2172 22.2327 30.189 22.1921 30.1697 22.1472C30.1504 22.1022 30.1405 22.0538 30.1406 22.0049ZM21.2665 22.0048H20.4598C20.4598 22.0048 20.5181 22.3741 20.8874 22.3741C20.9371 22.3768 20.9868 22.3692 21.0334 22.3518C21.0799 22.3343 21.1224 22.3073 21.158 22.2726C21.1936 22.2379 21.2217 22.1962 21.2403 22.1501C21.259 22.104 21.2679 22.0545 21.2665 22.0048Z" fill="white"/>
</svg>
