<svg width="76" height="76" viewBox="0 0 76 76" fill="none" xmlns="http://www.w3.org/2000/svg">
<path fill-rule="evenodd" clip-rule="evenodd" d="M40.4719 15.3602L38.4186 6L36.2979 15.3602L38.3993 18.898L40.4719 15.3602ZM52.5891 22.0022L56.1269 20.5081L54.8448 24.1423L52.2131 24.5375L52.5891 22.0022ZM24.2481 22.0309L24.7687 24.624L22.0792 24.2288L20.6525 20.5657L24.2481 22.0309ZM52.1842 52.0781L52.618 54.758L56.1847 56.1558L54.7869 52.5023L52.1842 52.0781ZM36.3364 61.5831L38.4186 70.7795L40.443 61.4385L38.4186 57.8718L36.3364 61.5831ZM20.7393 56.098L24.2771 54.7003L24.653 52.1072L22.0503 52.5024L20.7393 56.098ZM15.3409 40.5393L6 38.3607L15.2542 36.2207L18.8787 38.3897L15.3409 40.5393ZM61.4673 36.2786L58.0645 38.3029L61.5251 40.4815L70.6926 38.4186L61.4673 36.2786ZM40.3948 46.198C40.6165 47.0367 40.0767 47.4801 40.0767 47.4801C39.614 47.4801 39.4694 46.4775 39.4694 46.4775C39.4694 46.4775 38.9585 47.6921 38.6307 47.4415C38.3029 47.1909 38.2451 46.3715 38.2258 45.9763L38.2249 46.0207L38.2239 46.1018V46.1021C38.2192 46.5119 38.212 47.1373 37.8209 47.4415C37.3872 47.7789 36.9823 46.4775 36.9823 46.4775C36.9823 46.4775 36.8473 47.4897 36.3846 47.4897C36.3846 47.4897 35.8448 47.0367 36.0665 46.2076C36.2207 45.6196 38.2258 45.745 38.2258 45.745C38.3222 45.7353 40.2405 45.6196 40.3948 46.198ZM39.0258 50.7769C38.6113 50.5359 38.5535 51.0565 38.5439 51.2493C38.5439 51.1336 38.5246 50.9119 38.4089 50.8059C38.2932 50.6998 38.2065 50.6805 38.2065 50.6805C38.2065 50.6805 38.1101 50.6613 37.9558 50.8059C37.8162 50.9368 37.8188 51.0994 37.8205 51.2077C37.8207 51.219 37.8209 51.2297 37.8209 51.2397C37.8112 51.0469 37.7438 50.5263 37.3293 50.7673C36.9148 51.0083 36.9147 51.6253 36.9244 51.8663C36.9244 51.896 36.9325 51.9251 36.9477 51.9506C36.963 51.9761 36.9849 51.9969 37.0112 52.0109C37.7534 52.3868 38.1775 52.1458 38.1775 52.1458C38.1775 52.1458 38.6113 52.3965 39.344 52.0205C39.3713 52.007 39.3947 51.9865 39.4116 51.9611C39.4285 51.9357 39.4384 51.9063 39.4404 51.8759C39.45 51.6349 39.4307 51.0083 39.0258 50.7769ZM39.8452 49.5138C40.0862 48.8776 40.5104 48.8583 40.6936 49.0029C41.0695 49.2729 41.725 50.1308 41.2912 51.3551C41.2912 51.3551 41.0406 52.1648 39.6428 52.1359C39.62 52.1347 39.5977 52.1289 39.5771 52.1191C39.5565 52.1092 39.5381 52.0954 39.5229 52.0783C39.5076 52.0613 39.4959 52.0415 39.4884 52.0199C39.4808 51.9984 39.4776 51.9756 39.4789 51.9528L39.49 51.8524C39.5557 51.2574 39.709 49.868 39.8452 49.5138ZM42.9878 46.6992C42.8554 46.6065 42.6138 46.5365 42.3536 46.4612C42.2351 46.4269 42.1126 46.3914 41.9949 46.3522C41.8297 46.2971 41.6737 46.2271 41.532 46.1635C41.3513 46.0824 41.1938 46.0117 41.0695 45.9955C41.0376 45.9914 41.0052 45.9941 40.9743 46.0033C40.9435 46.0125 40.9149 46.028 40.8904 46.0489C40.8659 46.0698 40.8461 46.0955 40.8321 46.1245C40.8181 46.1535 40.8103 46.1851 40.8092 46.2172C40.7996 46.7571 40.8478 48.0681 41.4744 48.4826C42.3516 49.0706 42.9203 47.5571 43.0938 47.0077C43.1079 46.9515 43.1054 46.8925 43.0866 46.8377C43.0678 46.7829 43.0335 46.7348 42.9878 46.6992ZM35.5749 46.1347C35.5878 46.1637 35.5944 46.1951 35.5941 46.2268C35.6038 46.7666 35.5652 48.0776 34.9386 48.4921C34.0614 49.0801 33.4926 47.5667 33.3191 47.0172C33.2996 46.9628 33.2996 46.9034 33.3189 46.8489C33.3382 46.7945 33.3757 46.7483 33.4252 46.7184C33.557 46.6195 33.7608 46.5612 34.006 46.4911L34.006 46.4911C34.1195 46.4587 34.2418 46.4237 34.3698 46.381C34.5491 46.3212 34.7151 46.2464 34.8646 46.179C35.0527 46.0942 35.2146 46.0212 35.3435 46.0051C35.3749 46.0009 35.4069 46.0036 35.4372 46.0129C35.4675 46.0222 35.4955 46.0378 35.5193 46.0588C35.5431 46.0798 35.562 46.1057 35.5749 46.1347ZM35.6713 48.9934C35.2953 49.2633 34.6302 50.1213 35.0736 51.3455C35.0736 51.3455 35.3243 52.1649 36.722 52.1263C36.745 52.1267 36.7677 52.122 36.7886 52.1125C36.8095 52.1031 36.828 52.089 36.8427 52.0715C36.8575 52.054 36.8682 52.0333 36.874 52.0111C36.8798 51.9889 36.8806 51.9657 36.8762 51.9432C36.8281 51.4226 36.6546 49.8803 36.51 49.5043C36.269 48.8681 35.8544 48.8488 35.6713 48.9934ZM42.8433 22.7926C42.8433 22.7926 44.993 17.8763 46.0533 17.722C46.8824 17.5967 49.1863 17.6546 53.6109 31.5165C53.6372 31.5964 53.7028 31.7779 53.798 32.0408C54.507 33.9994 56.8532 40.4803 56.7342 43.1999C56.5992 46.0629 51.2781 55.722 38.3415 56.4064C24.3735 55.0376 20.2862 45.3882 20.3729 43.0168C20.4657 40.3002 22.4782 34.4163 23.2247 32.2336C23.3312 31.9223 23.4119 31.6862 23.4577 31.5454C27.2779 17.5195 29.7716 17.6809 30.6279 17.7363C30.6597 17.7384 30.6892 17.7403 30.7164 17.7413C31.478 17.7702 33.9265 22.86 33.9265 22.86H34.1193C35.6403 22.8719 37.1522 23.0958 38.6114 23.5252C38.6114 23.5252 40.1538 22.9275 42.8433 22.7926ZM37.8788 29.8103C37.8692 30.0802 37.8595 30.3501 37.8595 30.62C37.8499 30.8899 37.8499 31.1502 37.8499 31.4201C37.8499 31.5556 37.8596 31.6909 37.8788 31.825C37.8865 31.9412 37.9067 32.045 37.9294 32.1614C37.9349 32.1898 37.9406 32.2189 37.9463 32.2492C37.9752 32.4034 38.1873 32.3359 38.2065 32.2106C38.2139 32.1625 38.2242 32.1144 38.2345 32.0658C38.2511 31.9877 38.2681 31.9082 38.274 31.825C38.2766 31.7888 38.2792 31.7623 38.2816 31.7377C38.2881 31.6706 38.2933 31.6177 38.2933 31.4201C38.2933 31.2827 38.2908 31.1427 38.2883 31.0054C38.286 30.873 38.2837 30.743 38.2837 30.62C38.2837 30.4755 38.2804 30.2892 38.2777 30.1316C38.2757 30.0159 38.274 29.9156 38.274 29.8585V29.8578C38.274 29.723 38.274 29.5595 38.2644 29.444C38.2625 29.4219 38.2614 29.3984 38.2602 29.3742C38.2553 29.2715 38.2496 29.1556 38.1873 29.0777C38.1777 29.0631 38.1651 29.0506 38.1505 29.0412C38.1358 29.0317 38.1193 29.0254 38.1021 29.0227C38.0848 29.02 38.0672 29.0209 38.0503 29.0254C38.0335 29.0298 38.0177 29.0378 38.0041 29.0488C37.9174 29.1548 37.9077 29.2512 37.8981 29.3958C37.8884 29.5403 37.8884 29.5404 37.8788 29.8097L37.8788 29.8103ZM39.3151 33.1553C39.3151 33.1553 38.6114 32.8275 38.1487 33.1746C38.1487 33.1746 37.445 32.7504 37.0498 33.1842C37.0498 33.1842 38.0619 33.3577 38.1776 33.7529C38.1776 33.7529 38.6885 33.1553 39.3151 33.1553ZM38.1969 34.4277C38.0812 34.3217 37.5992 34.0904 37.3582 34.1289C36.4424 34.2446 36.3653 34.7941 36.3653 34.7941C36.3653 34.7941 37.2908 34.4085 38.2451 35.2857C38.2622 35.3007 38.2998 35.2629 38.362 35.2004C38.5799 34.9812 39.1006 34.4576 40.1056 34.8326C40.1056 34.8326 39.9224 34.2157 39.0838 34.1C38.9704 34.0858 38.7829 34.1897 38.6076 34.2869C38.4252 34.388 38.2559 34.4818 38.1969 34.4277ZM35.7404 33.3845C35.8408 33.0059 35.9266 32.682 35.9605 32.4323C35.9605 32.4323 35.2182 34.5145 33.5698 34.3892C32.6792 34.3179 27.7729 32.6339 26.8946 32.3324C26.8223 32.3076 26.7773 32.2921 26.7641 32.2877L28.374 33.3963C28.374 33.3963 29.4151 34.9579 32.7022 35.5845C32.654 35.3917 32.5287 35.064 32.2491 34.5338C32.2491 34.5338 33.0589 34.7555 33.3095 34.7555C33.3095 34.7555 33.2324 35.3339 33.0396 35.6423L33.6276 35.7195C33.5668 35.9204 33.4723 36.1094 33.3481 36.2786C33.0894 36.6382 32.521 36.9978 32.2132 37.1926C32.0507 37.2954 31.9608 37.3523 32.0274 37.339C33.6084 37.0016 35.3339 35.276 35.3628 35.064C35.4602 34.442 35.6121 33.8685 35.7404 33.3845ZM31.8635 23.4866C31.8635 23.4866 31.3141 19.7753 29.9356 19.8621C28.5475 19.9488 26.4267 26.7448 26.3689 28.7403L28.0269 27.0437C28.0269 27.0437 28.1137 26.0412 28.1715 25.9351C28.374 25.5206 29.9067 25.3085 29.9067 25.3085C29.9067 25.3085 29.5018 24.4892 29.5404 24.3831C29.6657 24.0072 31.8635 23.4866 31.8635 23.4866ZM24.8747 49.7743C24.9881 49.8855 25.1327 49.9595 25.2892 49.9864C25.3139 49.9859 25.3381 49.9792 25.3594 49.9667C25.3808 49.9543 25.3986 49.9366 25.4112 49.9153C25.4237 49.8941 25.4306 49.8699 25.4312 49.8452C25.4318 49.8206 25.4261 49.7961 25.4145 49.7743C25.3342 49.665 25.2325 49.5732 25.1157 49.5044L24.8072 49.2537C24.5665 49.0419 24.3546 48.8204 24.1427 48.5989L24.1421 48.5982C23.7198 48.1321 23.3361 47.6324 22.9949 47.104C22.9528 47.0382 22.9093 46.9724 22.8655 46.9062C22.7488 46.73 22.6304 46.551 22.5323 46.3618C22.4744 46.2558 22.272 46.3329 22.3202 46.4582C22.529 46.9928 22.8113 47.4957 23.1588 47.9524C23.5462 48.4889 23.9853 48.9862 24.4698 49.4369L24.8747 49.7743ZM26.7163 50.9626C26.7466 50.9484 26.7705 50.9234 26.7834 50.8925C26.7933 50.8763 26.7997 50.8582 26.8022 50.8393C26.8046 50.8205 26.8031 50.8013 26.7976 50.7831C26.7922 50.7649 26.7829 50.7481 26.7705 50.7337C26.7581 50.7193 26.7428 50.7077 26.7256 50.6997L26.5713 50.6033L26.4074 50.5165L26.3303 50.4587H26.2821L26.1568 50.3334C26.1336 50.3116 26.1036 50.2987 26.0718 50.2969C26.0401 50.2952 26.0087 50.3047 25.9833 50.3237C25.9592 50.3428 25.943 50.37 25.9377 50.4002C25.9324 50.4304 25.9383 50.4615 25.9544 50.4876C26.0245 50.6122 26.1237 50.7181 26.2436 50.7961C26.3569 50.877 26.4844 50.9359 26.6195 50.9696C26.6515 50.9793 26.686 50.9769 26.7163 50.9626ZM46.6414 44.9027C47.3997 43.7106 47.9505 42.8447 48.0488 42.7661C48.3476 42.5251 49.0513 39.9706 48.5982 39.8164C48.1452 39.6622 47.6343 40.5876 47.6343 40.5876C47.5189 40.7655 47.6049 41.0153 47.6926 41.27C47.7808 41.5261 47.8707 41.7872 47.7596 41.9853C46.5257 44.1254 44.7809 45.8991 44.3085 46.0148C43.0532 46.314 41.4966 45.6526 40.5604 45.2546C40.411 45.1912 40.2775 45.1344 40.1634 45.0893C38.8331 44.5591 38.5439 43.5181 39.0934 42.7565C39.1986 42.6108 39.3592 42.4043 39.552 42.1563C40.3668 41.1087 41.7574 39.3208 41.9757 38.2451C42.342 36.4135 38.2644 36.3846 38.2644 36.3846H38.1487C38.1487 36.3846 34.0614 36.4135 34.4277 38.2451C34.6445 39.3133 36.0732 41.146 36.8724 42.1711C37.0684 42.4226 37.2266 42.6255 37.3197 42.7565C37.792 43.4217 37.58 44.5591 36.24 45.0893C36.1257 45.1345 35.9917 45.1915 35.8418 45.2552C34.9056 45.6531 33.351 46.3139 32.1045 46.0148C31.6226 45.8991 29.8874 44.1254 28.6535 41.9853C28.5368 41.7859 28.6262 41.5227 28.7137 41.265C28.7997 41.012 28.8838 40.7643 28.7692 40.5876C28.7692 40.5876 28.2583 39.6718 27.8052 39.8164C27.3521 39.961 28.0558 42.5348 28.3547 42.7661C28.4591 42.847 29.0411 43.7607 29.8341 45.0056C31.311 47.3242 33.5194 50.7913 34.7362 52.1649C35.4785 52.9939 36.9534 53.1964 38.0716 53.2157H38.3415C39.4501 53.1964 40.9346 52.9939 41.6672 52.1649C42.9085 50.7708 45.1671 47.2204 46.6414 44.9027ZM45.6774 34.8133C47.0848 34.1482 47.5957 33.3867 47.5957 33.3867L49.2055 32.2877C49.1763 32.2965 49.0206 32.3495 48.7742 32.4334C48.2074 32.6262 47.1611 32.9823 46.0726 33.3385C45.8945 32.1538 44.8519 29.1592 44.2837 27.527C44.1445 27.1272 44.0337 26.8092 43.9711 26.6195C44.1699 27.5305 44.7316 31.4015 44.9714 33.0547C45.0107 33.3258 45.0414 33.5372 45.0604 33.6662C43.8555 34.0421 42.7662 34.3603 42.3902 34.3892C40.7418 34.5145 39.9995 32.4227 39.9995 32.4227C40.0337 32.6791 40.121 33.0094 40.2226 33.3942C40.3503 33.8775 40.5006 34.4468 40.5972 35.064C40.6261 35.276 42.3516 37.0016 43.9422 37.339C44.0047 37.3521 43.9157 37.2957 43.7557 37.1943C43.4466 36.9983 42.8723 36.6343 42.6119 36.2786C42.4897 36.1082 42.3953 35.9195 42.3324 35.7195L43.0072 35.6231C42.8336 35.3146 42.7565 34.7748 42.7565 34.7748C42.9975 34.7748 43.8169 34.5434 43.8169 34.5434C43.6393 34.867 43.4909 35.2057 43.3735 35.5556C43.7935 35.4725 44.2086 35.3663 44.617 35.2375C45.1472 36.1051 45.7256 37.7342 45.7256 37.7342C45.8695 37.0327 45.7281 35.3997 45.685 34.9022C45.6819 34.8664 45.6793 34.8366 45.6774 34.8133ZM48.5693 25.9737C48.6175 26.0797 48.7043 27.0823 48.7043 27.0823L50.3719 28.7789C50.3141 26.7834 48.1933 19.9874 46.8052 19.9006C45.4171 19.8139 44.8773 23.5348 44.8773 23.5348C44.8773 23.5348 47.0655 24.0457 47.2005 24.4217C47.239 24.5277 46.8341 25.3471 46.8341 25.3471C46.8341 25.3471 48.3572 25.5592 48.5693 25.9737ZM55.4437 41.9291C55.4325 41.9329 55.4223 41.9389 55.4136 41.9468C55.395 41.9634 55.3829 41.986 55.3794 42.0107C55.3758 42.0354 55.3811 42.0606 55.3943 42.0817V42.1974C55.3943 42.2215 55.3919 42.2432 55.3895 42.2649C55.387 42.2866 55.3846 42.3082 55.3846 42.3323C55.3831 42.3574 55.3886 42.3825 55.4005 42.4046C55.4124 42.4268 55.4303 42.4452 55.4521 42.4577C55.487 42.4782 55.5282 42.485 55.5678 42.4769C55.599 42.4664 55.6261 42.4462 55.6449 42.4191C55.6644 42.3945 55.6746 42.3637 55.6738 42.3323C55.6882 42.2721 55.6882 42.2094 55.6738 42.1492C55.6685 42.119 55.6588 42.0898 55.6449 42.0624L55.6063 42.0142L55.5678 41.9853L55.5389 41.9564C55.5314 41.9473 55.5223 41.9398 55.5118 41.9343C55.5014 41.9289 55.49 41.9256 55.4783 41.9247C55.4666 41.9238 55.4548 41.9253 55.4437 41.9291ZM54.3821 46.5353C54.2616 46.6667 54.1489 46.8051 54.0447 46.9498C53.9772 47.0559 54.1122 47.1715 54.2182 47.1233C54.3645 47.0252 54.4946 46.9048 54.6038 46.7666C54.7213 46.6318 54.8308 46.4902 54.9316 46.3425C55.1399 46.0444 55.3085 45.7203 55.4328 45.3785C55.5553 45.044 55.6457 44.6987 55.7027 44.3471C55.7252 44.168 55.7381 43.9878 55.7413 43.8073C55.7507 43.6222 55.7312 43.4368 55.6835 43.2578C55.6449 43.1517 55.4618 43.1325 55.4425 43.2578C55.4264 43.434 55.42 43.611 55.4232 43.788C55.4136 43.9518 55.3943 44.1157 55.375 44.2699C55.3257 44.6055 55.2417 44.935 55.1244 45.2532C55.0064 45.5646 54.8545 45.862 54.6713 46.1401C54.5859 46.2795 54.4892 46.4117 54.3821 46.5353Z" fill="white"/>
<path opacity="0.1" d="M58.5038 58.0122L56.0842 50.9173C58.0226 48.2521 59.3461 45.1903 59.9594 41.9523L76 37.9133L59.8919 33.3344C59.2605 30.2131 57.9652 27.2641 56.0939 24.6875L58.5038 17.3516L51.2547 19.8194C50.8434 19.5109 50.4193 19.2217 49.9823 18.9518C49.6834 18.2866 48.3531 15.5875 46.6662 15.1345C45.4708 14.8067 44.449 15.5201 43.6682 16.1949C43.2344 16.0792 42.791 15.9828 42.3476 15.896L37.9904 0L33.8453 15.8671C33.2572 15.9827 32.6885 16.1081 32.1294 16.2623C31.3486 15.5875 30.3075 14.8742 29.1121 15.1923C27.1842 15.7128 25.7286 19.1542 25.7286 19.1542H25.7479C25.4297 19.3567 25.1213 19.5784 24.8128 19.8001L17.8047 17.2166L20.3496 24.1669C18.2278 26.9067 16.7783 30.1061 16.1177 33.5079L0 37.894L16.1081 42.0777C16.7529 45.3901 18.1441 48.5121 20.1761 51.2065L17.8818 58.1761L24.6875 55.6986C27.4389 57.7543 30.6298 59.1435 34.0091 59.757L37.9325 75.7494L42.444 59.6799C45.6883 59.0293 48.7453 57.6589 51.3897 55.6697L58.5038 58.0122Z" fill="white"/>
</svg>
