<svg width="61" height="60" viewBox="0 0 61 60" fill="none" xmlns="http://www.w3.org/2000/svg">
<path opacity="0.1" d="M50.1861 49.9394L47.8044 42.9556C49.7295 40.3126 51.0363 37.2709 51.6284 34.0552L60.2632 29.8611L51.562 25.6766C50.9375 22.5948 49.6594 19.6827 47.8139 17.1367L50.1861 9.91577L43.0506 12.3449C42.7374 12.1171 42.4338 11.8989 42.1112 11.6901C41.7601 10.7602 40.6594 8.24573 38.6478 7.67641C37.4996 7.3443 36.4843 8.14137 35.7442 8.82456C35.2603 8.69172 34.7763 8.57784 34.2829 8.48295L30.1079 0L25.9233 8.45446C25.4868 8.53037 25.0599 8.62526 24.6234 8.73912C23.8548 8.05593 22.83 7.33479 21.6344 7.65741C19.9644 8.10338 18.6644 10.7697 18.3608 11.415C17.9053 11.7123 17.4593 12.0159 17.0229 12.3259L10.1245 9.78289L12.6296 16.6243C10.541 19.3212 9.11422 22.4704 8.46398 25.8189L0 29.8991L8.45449 34.2165C9.08084 37.4913 10.4508 40.5786 12.4588 43.2403L10.2004 50.1007L16.8995 47.6621C19.6236 49.6969 22.7849 51.0681 26.1321 51.6664L30.1553 59.988L34.2829 51.5999C37.5115 50.9677 40.5546 49.6116 43.1834 47.6336L50.1861 49.9394Z" fill="white"/>
<path d="M45.1855 22.8204C39.1127 5.45596 37.9835 7.05956 34.5771 14.2331C31.9297 14.3659 30.4115 14.9542 30.4115 14.9542C30.4115 14.9542 28.0393 14.2425 25.8095 14.2995C22.6117 7.6004 20.8943 4.86764 15.5047 22.8489C15.1346 23.959 12.5726 31.0851 12.4588 34.1405C12.3734 36.4747 16.4061 45.973 30.1553 47.3204C42.8892 46.6467 48.127 37.1389 48.2504 34.3208C48.3832 31.2844 45.3943 23.4846 45.1855 22.8204ZM30.1743 23.627C30.2312 23.3613 30.0414 22.0613 30.4779 22.2321C30.6962 23.0956 30.6203 24.1393 30.5254 25.0313C30.0984 25.6291 30.1648 23.8357 30.1743 23.627ZM30.3071 26.132C30.4923 26.1301 30.675 26.1742 30.839 26.2603C31.0029 26.3464 31.1429 26.4719 31.2465 26.6254C30.7151 26.3028 29.2823 26.5969 29.2349 26.6064C29.1875 26.6159 29.548 26.1415 30.3071 26.132ZM30.3356 27.4984C31.8063 27.4889 32.518 28.4093 32.518 28.4093C31.256 27.7925 27.859 28.3808 27.859 28.3808C27.859 28.3808 28.5137 27.5173 30.3356 27.4984ZM26.0467 27.4699C27.0145 27.5743 26.9955 26.3313 26.9955 26.3313C27.9065 29.0071 27.47 27.821 26.5021 28.3144C23.9117 30.5158 20.4483 26.8911 20.5337 26.521L19.3761 25.8948C19.3761 25.8948 25.0883 27.3655 26.0467 27.4699ZM21.8716 11.3485C23.238 11.2631 23.7694 14.9162 23.7694 14.9162C23.7694 14.9162 21.6154 15.4287 21.4826 15.7987C21.4446 15.9031 21.8431 16.7096 21.8431 16.7096C21.8431 16.7096 20.3344 16.9184 20.1352 17.3264C20.0877 17.4308 20.0023 18.4176 20.0023 18.4176L18.3608 20.0876C18.4177 18.1234 20.5052 11.4339 21.8716 11.3485ZM17.3075 40.8965C16.4156 40.536 15.7988 39.625 15.201 38.8944C15.0682 38.7331 13.9485 37.0441 14.5842 37.3287C15.2674 38.4769 16.074 39.5871 17.1367 40.4221C17.2885 40.5075 17.6301 40.8111 17.3075 40.8965ZM18.7783 41.7885C18.5695 42.0352 18.0666 41.5892 17.9528 41.3899C17.8389 41.1907 18.19 41.2191 18.2943 41.371C18.4272 41.5228 18.8162 41.5418 18.7783 41.7885ZM40.7353 38.1353C39.0178 41.0199 35.2413 43.838 30.2881 39.8907C25.1357 43.7906 21.53 40.9819 19.7272 38.1353C19.3951 37.8696 19.0724 37.0725 19.5848 36.9017C20.0972 36.7309 20.2111 37.7937 20.2111 37.7937C23.5227 42.8417 27.4795 39.9097 28.2765 39.4922C29.2539 38.9703 29.8327 37.1674 29.3108 36.4273C26.7963 32.8405 23.3424 30.2406 30.2312 29.3582C37.1106 30.2501 33.6661 32.8311 31.1516 36.4368C29.7852 39.4732 36.6171 43.6008 40.2513 37.8032C40.3367 36.247 41.8455 36.9397 40.7353 38.1353ZM40.128 26.4925C40.1849 26.8911 36.7785 30.4873 34.1691 28.2859C33.2012 27.7925 32.7647 28.9786 33.6756 26.3123C33.6756 26.3123 33.6567 27.5458 34.615 27.4414C35.5734 27.337 41.2951 25.8758 41.2951 25.8758L40.128 26.4925ZM40.3557 18.465C40.3557 18.465 40.2703 17.4782 40.2134 17.3644C40.0141 16.9658 38.5054 16.7476 38.5054 16.7476C38.5054 16.7476 38.9039 15.941 38.866 15.8367C38.7426 15.4666 36.5792 14.9637 36.5792 14.9637C38.2777 5.93037 41.5988 16.4914 41.9878 20.1351L40.3557 18.465ZM46.9599 32.9829C47.1876 32.9069 47.292 33.296 47.1781 33.4478C47.0643 33.5997 46.903 33.296 46.9409 33.1157C46.9258 33.0956 46.9193 33.0703 46.9229 33.0454C46.9265 33.0204 46.9398 32.998 46.9599 32.9829ZM47.2351 35.3456C47.1384 36.049 46.882 36.7208 46.4855 37.3097C46.3716 37.4711 45.6125 38.4959 45.603 37.9076C46.2672 37.1674 46.7986 36.2755 46.922 35.2697C46.9789 34.947 46.9504 34.6054 46.9884 34.2733C47.3869 33.8653 47.273 35.1463 47.2351 35.3456ZM31.6925 8.91936L30.2122 11.0543L28.694 8.86242L30.1933 5.41797L31.6925 8.91936ZM54.9115 30.1742L51.4101 31.588L49.3226 30.0698L51.4671 28.618L54.9115 30.1742ZM31.7115 51.4101L30.1743 54.845L28.7415 51.4101L30.2122 49.3415L31.7115 51.4101ZM8.90047 31.6924L5.45605 30.1362L8.90047 28.618L11.007 30.1742L8.90047 31.6924Z" fill="white"/>
</svg>
