<svg width="46" height="46" viewBox="0 0 46 46" fill="none" xmlns="http://www.w3.org/2000/svg">
<path opacity="0.1" d="M46 23.0048C46 35.7099 35.7003 46 23.0048 46C10.3092 46 0 35.7099 0 23.0048C0 17.5352 1.49865 12.8197 4.68686 8.87735C4.85868 8.66735 4.15231 6.08055 5.65096 4.66781C7.32143 3.10234 9.51691 4.47687 9.89873 4.20959C13.736 1.47957 17.9265 0 23.0048 0C28.083 0 32.3689 1.37457 36.2062 4.20959C36.3208 4.2955 38.984 3.51277 40.3776 4.7346C42.0099 6.16643 41.1604 8.73419 41.4372 9.08737C44.53 12.9629 46 17.6593 46 23.0048Z" fill="white"/>
<path fill-rule="evenodd" clip-rule="evenodd" d="M38.3856 5.80337C39.2241 5.77366 40.7943 5.71803 37.9339 16.552C37.8665 16.8039 38.2936 18.0448 38.8501 19.6615C39.7907 22.3947 41.1011 26.202 41.0172 28.1212C40.8931 30.9562 38.7167 40.2822 23.0047 41.0459C6.75819 39.7763 5.09727 30.269 5.18318 27.9208C5.25081 26.1003 6.35669 22.6992 7.20797 20.0811C7.79848 18.265 8.26649 16.8257 8.18048 16.552C4.90025 5.96003 7.01142 5.85176 7.83612 5.80946C7.87059 5.80769 7.90281 5.80604 7.93229 5.80374C8.6673 5.74647 14.4614 7.98011 14.4614 7.98011C16.9162 7.78241 21.5034 8.5017 22.7453 8.69644C22.9426 8.72736 23.0554 8.74506 23.062 8.74375C23.1097 8.73421 28.8084 7.75102 31.653 7.98011C31.653 7.98011 37.4567 5.74647 38.1917 5.80374C38.249 5.80821 38.3147 5.80588 38.3856 5.80337ZM27.3002 11.8365C29.2666 10.3092 30.7461 13.6788 30.0302 14.242C29.3143 14.8052 25.5915 13.1729 27.3002 11.8365ZM31.0039 18.6521C30.7366 18.5662 27.7775 17.7357 26.2884 18.3848C25.3147 18.8143 25.8397 19.4634 26.4316 19.3393C28.0543 19.0148 30.3261 19.3107 30.7843 19.387C31.5384 19.5111 31.4716 18.7952 31.0039 18.6521ZM22.9952 15.7597C22.9928 15.922 22.9904 16.0843 22.9856 16.2466C22.9856 16.3512 22.9846 16.4559 22.9835 16.5609C22.9814 16.7719 22.9792 16.9844 22.9856 17.2011V17.2012C22.9856 17.3634 22.9856 17.5257 23.0047 17.6975C23.0143 17.7834 23.0286 17.8669 23.0429 17.9504C23.0572 18.034 23.0715 18.1175 23.0811 18.2034C23.0888 18.2316 23.1056 18.2565 23.1289 18.2743C23.1522 18.292 23.1807 18.3017 23.2099 18.3017C23.2392 18.3017 23.2677 18.292 23.291 18.2743C23.3142 18.2565 23.331 18.2316 23.3388 18.2034C23.3454 18.1472 23.3532 18.0933 23.3609 18.0397C23.3754 17.9385 23.3898 17.8385 23.3961 17.7261L23.3975 17.7001C23.4066 17.5379 23.4152 17.3834 23.4152 17.2202V16.2466C23.4104 16.0891 23.4104 15.9292 23.4104 15.7693C23.4104 15.6094 23.4104 15.4495 23.4056 15.292C23.4056 15.1297 23.4056 14.9484 23.3961 14.7956C23.3943 14.7671 23.3932 14.7375 23.392 14.7074C23.3871 14.5767 23.3818 14.4365 23.3197 14.3279C23.3098 14.31 23.2953 14.2951 23.2777 14.2847C23.26 14.2743 23.2399 14.2688 23.2195 14.2688C23.199 14.2688 23.1789 14.2743 23.1613 14.2847C23.1437 14.2951 23.1292 14.31 23.1193 14.3279C23.0554 14.4202 23.0495 14.523 23.0429 14.6404C23.0406 14.6808 23.0382 14.723 23.0333 14.767C23.0205 14.8823 23.0163 14.9933 23.012 15.1057C23.01 15.1609 23.0078 15.2164 23.0047 15.2729C22.9999 15.4352 22.9975 15.5974 22.9952 15.7597ZM18.8715 11.722C20.5801 13.0488 16.8574 14.6811 16.1415 14.1179C15.4255 13.5547 16.9051 10.1947 18.8715 11.722ZM20.1601 18.4707C18.6806 17.8216 15.7215 18.6425 15.4446 18.7284C14.9865 18.8716 14.9101 19.5875 15.6737 19.4634C16.1224 19.3871 18.4038 19.0911 20.0265 19.4252C20.6088 19.5398 21.1433 18.9002 20.1601 18.4707ZM9.10646 34.6982C9.21145 34.8032 9.34506 34.9368 9.49776 34.9654C9.58367 34.9845 9.70776 34.9081 9.66004 34.7935C9.60536 34.6772 9.52351 34.5758 9.4214 34.4977C9.31649 34.4023 9.22111 34.2974 9.12575 34.1925L9.12548 34.1922C8.92531 33.9694 8.74035 33.7334 8.57184 33.4858C8.20844 32.9762 7.8891 32.4365 7.61729 31.8726C7.57914 31.7934 7.53918 31.7142 7.49909 31.6347C7.40876 31.4555 7.31773 31.275 7.24501 31.0899C7.23441 31.0644 7.21493 31.0436 7.19018 31.0313C7.16543 31.019 7.13706 31.016 7.11032 31.023C7.08358 31.03 7.06026 31.0464 7.04466 31.0692C7.02907 31.092 7.02225 31.1197 7.02546 31.1472C7.16457 31.6963 7.37984 32.2232 7.66502 32.7126C7.97957 33.2911 8.35389 33.835 8.78185 34.3354C8.88685 34.4595 9.00139 34.5931 9.10639 34.6981L9.10646 34.6982ZM10.864 36.0638C10.8913 36.0518 10.9143 36.0315 10.9296 36.0059C10.948 35.9781 10.9561 35.9448 10.9527 35.9117C10.9492 35.8787 10.9343 35.8478 10.9105 35.8245L10.7387 35.7004L10.6623 35.6431H10.6432L10.6146 35.6145C10.5656 35.5782 10.5208 35.5366 10.481 35.4904L10.4523 35.4617H10.4428L10.4141 35.4236L10.3855 35.3854C10.3681 35.3599 10.3424 35.3413 10.3129 35.3326C10.2833 35.3239 10.2516 35.3257 10.2232 35.3377C10.1951 35.3503 10.1727 35.3729 10.1603 35.4011C10.148 35.4294 10.1466 35.4612 10.1564 35.4904C10.1776 35.5656 10.2169 35.6344 10.2709 35.6909C10.3103 35.7432 10.3551 35.7912 10.4046 35.8341C10.4576 35.8838 10.5152 35.9285 10.5764 35.9677L10.6528 36.025L10.7769 36.0727C10.8061 36.0789 10.8366 36.0758 10.864 36.0638ZM10.3223 11.3951C10.3347 11.3957 10.3467 11.3998 10.3569 11.407L10.3653 11.4138C10.7838 11.7545 11.9932 12.739 12.581 12.1038C13.1728 11.4643 12.4378 10.1852 10.8914 8.66741C9.58367 7.37876 8.46684 6.96828 7.98002 6.83464C7.94738 6.82774 7.91368 6.82748 7.88094 6.8339C7.84819 6.84031 7.81708 6.85327 7.78946 6.87198C7.76183 6.89069 7.73827 6.9148 7.72017 6.94282C7.70207 6.97085 7.6898 7.00223 7.68411 7.03511C7.50274 8.24739 6.91092 13.402 9.38321 14.8625C9.39391 14.8676 9.40577 14.8698 9.4176 14.8688C9.42942 14.8679 9.44078 14.8638 9.4505 14.857C9.46022 14.8502 9.46795 14.8409 9.4729 14.8301C9.47785 14.8193 9.47984 14.8074 9.47867 14.7956C9.45152 14.5675 9.44832 14.3372 9.46912 14.1084C9.46912 14.0606 9.51685 14.0416 9.56458 14.0606C9.81276 14.1847 10.586 14.347 10.2519 11.4642C10.2514 11.4518 10.2544 11.4395 10.2606 11.4287C10.2667 11.4179 10.2757 11.4091 10.2866 11.4031C10.2975 11.3972 10.3099 11.3944 10.3223 11.3951ZM33.1927 29.5482C33.3047 29.3921 33.3818 29.2846 33.4284 29.2476C33.7625 28.9899 34.0775 28.1976 33.5716 28.0353C33.0657 27.873 32.9512 28.9135 32.9512 28.9135C29.9371 33.5093 26.3891 31.4151 25.2339 30.7333C25.1342 30.6744 25.0524 30.6261 24.9902 30.5935C24.0165 30.078 23.3674 28.3981 23.9688 27.5676C24.0776 27.4174 24.2395 27.2071 24.4337 26.9549C25.3131 25.8132 26.8547 23.8114 27.1284 22.623C27.4625 21.172 23.062 20.5802 23.062 20.5802C23.062 20.5802 18.6615 21.153 18.986 22.6135C19.258 23.8375 20.9247 25.9869 21.7663 27.0722C21.9289 27.2818 22.0606 27.4517 22.1456 27.5676C22.6706 28.2835 22.0979 30.0781 21.1338 30.584C21.0718 30.6165 20.9903 30.6646 20.891 30.7231C19.7355 31.4044 16.1782 33.5019 13.1632 28.9135C13.1632 28.9135 13.0582 27.8635 12.5523 28.0258C12.0464 28.188 12.3614 28.9899 12.686 29.2476C12.7325 29.2846 12.8097 29.3918 12.9217 29.5475C13.5909 30.4774 15.5044 33.1366 19.5683 32.8749C19.5683 32.8749 19.5301 38.4781 23.062 38.44C26.5938 38.4018 26.5461 32.8844 26.5461 32.8844C30.6172 33.1379 32.5249 30.4789 33.1927 29.5482ZM36.6453 14.8052C36.6357 14.8529 36.7026 14.9006 36.7407 14.8625C38.898 13.3352 38.6212 8.2474 38.4399 7.04466C38.4355 7.01116 38.4241 6.97895 38.4064 6.95019C38.3886 6.92142 38.365 6.89675 38.337 6.8778C38.3091 6.85885 38.2774 6.84603 38.2441 6.84024C38.2108 6.83445 38.1767 6.83581 38.1439 6.8442C37.6571 6.97784 36.5403 7.3883 35.2325 8.66741C33.6862 10.1852 32.9893 11.512 33.543 12.1038C34.0966 12.6956 35.3566 11.7506 35.7671 11.4165C35.7773 11.4094 35.7893 11.4053 35.8017 11.4046C35.8141 11.4039 35.8264 11.4067 35.8373 11.4126C35.8482 11.4186 35.8573 11.4275 35.8634 11.4383C35.8695 11.4491 35.8726 11.4614 35.8721 11.4738C35.538 14.3565 36.3112 14.1847 36.5594 14.0702C36.5679 14.0625 36.5786 14.0575 36.59 14.0559C36.6015 14.0543 36.6131 14.0563 36.6234 14.0614C36.6337 14.0666 36.6423 14.0748 36.6479 14.0848C36.6535 14.0949 36.6559 14.1064 36.6548 14.1179C36.6708 14.3469 36.6676 14.5768 36.6453 14.8052ZM39.8049 26.6526C39.7799 26.6526 39.7559 26.6623 39.738 26.6798C39.729 26.6872 39.7216 26.6963 39.7162 26.7066C39.7108 26.7169 39.7076 26.7283 39.7067 26.7399C39.7058 26.7515 39.7073 26.7631 39.711 26.7741C39.7148 26.7851 39.7207 26.7953 39.7285 26.804C39.7256 26.8205 39.729 26.8375 39.738 26.8517V27.0426C39.7396 27.0825 39.7568 27.1202 39.7858 27.1476C39.7986 27.1629 39.8147 27.1751 39.8329 27.1833C39.851 27.1916 39.8708 27.1957 39.8908 27.1953C39.9296 27.1929 39.966 27.1757 39.9927 27.1473C40.0193 27.1189 40.034 27.0815 40.034 27.0426C40.0355 26.9852 40.0323 26.9277 40.0244 26.8707L39.9862 26.7848C39.9667 26.7449 39.9325 26.7142 39.8908 26.6989L39.8717 26.6798C39.8538 26.6623 39.8298 26.6526 39.8049 26.6526ZM39.6712 31.0613C40.0213 30.425 40.2175 29.7156 40.244 28.9899C40.2551 28.8149 40.2519 28.6393 40.2344 28.4649C40.2212 28.2822 40.1826 28.1023 40.1199 27.9303C40.0626 27.8062 39.8908 27.8826 39.8908 27.9876C39.8908 28.1535 39.9004 28.3192 39.9194 28.484C39.9194 28.5381 39.9205 28.5922 39.9215 28.6462C39.9237 28.7544 39.9258 28.8626 39.9194 28.9708C39.9034 29.3068 39.849 29.6399 39.7571 29.9635C39.672 30.2806 39.5536 30.5877 39.4039 30.8799C39.3272 31.0253 39.2411 31.1656 39.1462 31.2999C39.1124 31.3525 39.0682 31.4126 39.0242 31.4724C38.9563 31.5645 38.8888 31.6563 38.8599 31.7199C38.8121 31.8249 38.9171 31.9681 39.0317 31.8917C39.1709 31.7861 39.2904 31.6569 39.3849 31.5099C39.4892 31.3662 39.5848 31.2164 39.6712 31.0613ZM22.9379 34.5168L22.8424 31.7104C22.8424 31.6522 22.8655 31.5963 22.9067 31.5552C22.9479 31.514 23.0037 31.4909 23.062 31.4909C23.1202 31.4909 23.176 31.514 23.2172 31.5552C23.2584 31.5963 23.2815 31.6522 23.2815 31.7104L23.1861 34.5168C23.1861 34.5497 23.173 34.5813 23.1497 34.6046C23.1264 34.6278 23.0949 34.6409 23.062 34.6409C23.0291 34.6409 22.9975 34.6278 22.9742 34.6046C22.9509 34.5813 22.9379 34.5497 22.9379 34.5168Z" fill="white"/>
</svg>
