<svg width="30" height="24" viewBox="0 0 30 24" fill="none" xmlns="http://www.w3.org/2000/svg">
<g clip-path="url(#clip0_679_2934)">
<path d="M28.8707 4.25276C27.2723 2.39919 24.5907 0.0304874 14.7194 0.00160073C10.9562 -0.00802816 5.50781 -0.107527 1.19728 3.11173C0.0289714 3.98475 -1.3929 4.87863 2.90801 9.13139C2.90801 9.13139 -1.7604 16.1942 7.81553 20.7149C7.81553 20.7149 7.97601 22.384 9.8713 22.8221C10.916 23.0628 13.121 23.2441 15.1736 23.2538C15.4496 23.8042 16.0916 24.1685 17.7349 23.9198C18.4811 23.8074 18.9289 23.4078 19.1696 22.8734L19.1808 22.8702C19.1808 22.8702 20.9317 22.2347 21.0601 20.7358C21.0601 20.7358 30.2589 18.3478 26.104 9.16028C26.104 9.16028 30.2187 5.81745 28.8707 4.25276Z" fill="#1A1A1A"/>
<path d="M27.245 4.88024C27.245 4.88024 24.1413 1.45717 14.7483 1.62889C14.7483 1.62889 5.20446 1.34965 1.78139 4.62347C1.78139 4.62347 0.853811 5.18515 4.43415 8.77512C4.43415 8.77512 0.369157 15.6646 8.79925 19.6445C8.79925 19.6445 8.75752 21.0792 10.4265 21.4644C11.3124 21.6682 13.1435 21.8239 14.8927 21.8431C14.8831 21.7886 14.8735 21.7356 14.8622 21.6842C14.6841 20.8851 14.2107 20.7583 13.8416 20.6154C10.1938 20.7214 10.2596 20.3234 10.2789 19.2401C10.327 16.3948 14.4354 16.1637 14.5766 16.1781C17.5086 16.4847 18.4891 18.0766 18.7298 19.0684C19.0235 19.5643 19.2931 20.3539 19.3766 21.1531C19.7858 20.869 20.1886 20.3843 20.0763 19.6028C20.0763 19.6028 28.1645 16.8425 24.5056 8.75426C24.5056 8.75426 27.9286 5.45797 27.245 4.88024ZM5.37618 7.57633C4.92683 8.00481 4.27848 7.82026 4.06344 7.56991C3.64298 7.07723 2.07347 5.63611 2.25963 5.30231C2.31259 5.20441 2.60145 4.49509 4.89794 5.65055C5.89774 6.15446 5.66825 7.2987 5.37618 7.57633ZM18.1168 3.9671C18.3623 4.12437 18.7138 4.61866 18.839 4.88024C19.4745 6.20903 18.4683 5.73721 18.3254 5.6987C18.1826 5.66018 17.6979 5.44192 17.2807 4.4999C16.8634 3.55787 17.9082 3.8339 18.1168 3.9671ZM10.1649 4.88024C10.2901 4.61866 10.6432 4.12437 10.8871 3.9671C11.0957 3.8339 12.1421 3.55948 11.7248 4.4999C11.3076 5.44032 10.8213 5.66018 10.6785 5.6987C10.5357 5.73721 9.52944 6.20903 10.1649 4.88024ZM9.60326 11.5852C8.70938 11.4905 9.24699 10.749 9.5182 10.6913C9.72683 10.6479 11.4616 10.526 12.5802 10.6062C13.2462 10.6528 12.8931 11.5001 12.4759 11.529C11.9591 11.5643 10.5068 11.6814 9.60326 11.5852ZM16.9036 13.0873L14.7338 15.6245C14.7042 15.6591 14.6672 15.6868 14.6256 15.7056C14.5841 15.7244 14.5389 15.7338 14.4932 15.7332C14.4476 15.7326 14.4027 15.722 14.3616 15.7021C14.3205 15.6822 14.2844 15.6535 14.2556 15.6181L12.2336 13.145C12.1853 13.0859 12.1603 13.0112 12.1632 12.935C12.1662 12.8587 12.1969 12.7862 12.2496 12.731C12.8049 12.15 14.5734 10.6881 16.8683 12.6459C16.8996 12.6726 16.9253 12.7051 16.944 12.7418C16.9628 12.7784 16.9741 12.8183 16.9774 12.8593C16.9806 12.9003 16.9758 12.9415 16.9631 12.9806C16.9505 13.0197 16.9302 13.056 16.9036 13.0873ZM19.4007 11.5852C18.4971 11.6814 17.0448 11.5643 16.528 11.529C16.1108 11.5001 15.7577 10.6528 16.4237 10.6062C17.5423 10.526 19.2771 10.6479 19.4857 10.6913C19.7569 10.749 20.2945 11.4905 19.4007 11.5852ZM23.6277 7.57633C23.3357 7.2987 23.1062 6.15446 24.106 5.65055C26.4025 4.49509 26.6913 5.20441 26.7443 5.30231C26.9304 5.63611 25.3738 7.08847 24.9405 7.56991C24.7094 7.82668 24.0771 8.00481 23.6277 7.57633Z" fill="white"/>
<path d="M17.6017 19.3268C17.2743 19.2818 17.4637 19.3685 17.5487 19.8162C17.6338 20.264 17.0352 20.2126 16.8731 19.9446C16.7896 19.8066 16.1605 18.7827 15.2233 19.1069C14.1128 19.4937 15.2956 19.9511 15.5796 20.5368C15.5906 20.5592 15.6002 20.5823 15.6085 20.6058C15.6871 20.8257 15.6743 21.3408 15.7658 21.8399C15.8765 22.4449 16.1365 23.0259 16.8923 23.0259C18.1457 23.0259 18.3238 22.1577 18.3768 21.5831C18.3832 21.5238 18.3864 21.4692 18.3912 21.4195C18.4105 21.1579 18.3575 20.6299 18.2195 20.1693C18.0911 19.7376 17.8889 19.3653 17.6017 19.3268Z" fill="white"/>
</g>
<defs>
<clipPath id="clip0_679_2934">
<rect width="29.1418" height="24" fill="white"/>
</clipPath>
</defs>
</svg>
