<svg xmlns="http://www.w3.org/2000/svg" viewBox="0 0 1187.63 208.65"><g id="Layer_2" data-name="Layer 2"><g id="Layer_1-2" data-name="Layer 1"><path d="M881.92,199c-76.19-.58-60.85-162.09,19.6-128.27a78.19,78.19,0,0,1,15.63-7.38c-18.87-6.82-47-7.22-66.58-1.19a26.21,26.21,0,0,1-.11,5.31,26.91,26.91,0,0,1-2-4.64c-31,9.61-50,37-49.38,70-2.84,62.56,65.9,87.45,118,69.47a76.22,76.22,0,0,1-15.52-7.39A45.26,45.26,0,0,1,881.92,199Z" style="fill:#fff"/><path d="M917.07,83.39c11,14.59,14.23,32.28,14,52.21a12.59,12.59,0,0,1,3.41-2.87l-.85,1.49v1.5a8.32,8.32,0,0,0-.84,2.7,6.88,6.88,0,0,1-1.25,3l-.21,1.47-.6-.25c-1.33,16.39-5.64,29.3-13.65,39.55a42.91,42.91,0,0,0,15.52,12.68c43-24,43-100.2,0-124.16A42.87,42.87,0,0,0,917.07,83.39Z" style="fill:#fff"/><path d="M1035,129.29a18.09,18.09,0,0,0-3.85.82c.51-1.71,1.85-3.72,2.51-5.36a8.57,8.57,0,0,1,.76-3.16C1029.88,66.12,964.7,47,917.15,63.38a76,76,0,0,1,15.42,7.35c92.28-35.5,91.58,160.13,0,124.16a76.22,76.22,0,0,1-15.52,7.39C971.25,220.83,1039.91,193.89,1035,129.29Z" style="fill:#fff"/><path d="M903,132.81c.07-21,4.46-37.15,14-49.42a42.7,42.7,0,0,0-15.55-12.63c-43.3,24.9-42.76,100,0,124.13a42.91,42.91,0,0,0,15.52-12.68C907.49,170,903.1,153.84,903,132.81Z" style="fill:#fff"/><path d="M901.52,70.76a42.8,42.8,0,0,1,15.55,12.63,42.87,42.87,0,0,1,15.5-12.66,76,76,0,0,0-15.42-7.35A78.19,78.19,0,0,0,901.52,70.76Z" style="fill:#fff"/><path d="M917.05,182.21a42.91,42.91,0,0,1-15.52,12.68,76.22,76.22,0,0,0,15.52,7.39,76.22,76.22,0,0,0,15.52-7.39A42.91,42.91,0,0,1,917.05,182.21Z" style="fill:#fff"/><path d="M607.14,164.47l0,.08H607l-6.36,13-8.89,11.38c-2.77,1.53-11.2,7.3-14.41,7.45-10.37,2.14-26.85,1-37.4,1v-57.6h27.35c.66,0,1.3.09,1.93.17l6.7,2.5,5.74,6.57c.23,1.14,3.07,9.11,2.9,10.09h2.06c-.07-9.54.1-38.53.12-47.57l-2.8-.29c.78,1.35-4.28,13.11-4.71,14.57l-11.35,5.27c-.89.16-26,0-26.89.05l-1.05-.06V76l.21-4.2c9.55-.18,25.87-.84,35.54-.41.46.26,14.31,5.61,13.78,6.3l5.16,14.18a10.16,10.16,0,0,1-.41,3,17.09,17.09,0,0,1,2.48-.11c.13-10.18,0-25.68,0-36l-.11,0v-.08c-.12,0-10.48,2.5-10.59,2.51l-.66.09-13.63.76c-11.21.31-34.16.47-45.63.38-.1.09-.71,1.65-.78,1.81a6.13,6.13,0,0,0-2.26,1.8,9,9,0,0,1-1.41-2.9l-1.05-.71H493.2v.43H493l-.12,1.67c1.86-.18,7,1.52,8.82,2.09l7,10.2c.15,10.22.39,24.17-.2,34.38,1.17,14.36.11,31.45-.37,45.82A89.64,89.64,0,0,1,508.5,180c0,11.33,1.45,9.65-4.3,20.09-1.74.55-9.27,4.62-11,4.31a3.92,3.92,0,0,1-.21,1.52l.21,0v.51a90.55,90.55,0,0,1,11.53.52l5.26-.52c21.37.31,50.25-.21,71.76.13,0,0,0-.08.07-.13h0a26.86,26.86,0,0,1,3.34-4.88,26.08,26.08,0,0,1-.9,5.05c2.19,0,13.13.3,15.55.36,2.1-9,7.11-33.14,9.38-42.48Z" style="fill:#fff"/><path d="M489.32,136.09a86.4,86.4,0,0,0-18.54-.25l-1.72.25H439v.17h-.26l-.1,2,3.36-.08,7.52,2.82c4.1,8,3.56,16.7,3.44,25.33.54,8.36-.8,18.13-7.79,23.68-7.11,6.71-18.13,7.88-27.46,8.51-26.82,3.17-43-24-45.46-47.75-1.13.42-3.12.49-4.3.78l1.17-1.44.3-1.59c.94-1.15,1.42-3,2.13-4.24-3.29-34.65,8.65-78.55,50.89-77.11,8.53-.38,17.74,1,24.94,5.87a20.47,20.47,0,0,1,8.7,4.61c1.93,2.23,5.82,5.86,7.55,8.26,2.47,5.57,6.33,13,7.8,18.93a15.24,15.24,0,0,1,2.33-.18c-.07-7.34-.19-19.11-.31-26.41a8.82,8.82,0,0,0-.05-4.27l-.05-4.7c-7.23-4-21-7.08-31.44-9.53-6.16-.58-13.15-.81-19.2-2-8.37.72-17.3.59-25.17,1.88-5.76,1.42-12.69,2.53-18.31,4.52-5.24,3-10.81,7.18-16.34,9.57-3.76,4.88-9.58,9.73-13.65,14.36-2.31,4.5-4.71,10-6.57,14.72l-2.2,3.52-1.4,6.61a74,74,0,0,1-2.27,13.29l.53,6.74c-.12,13.36,3.49,27,8.69,39,9.61,14.41,21.88,25.95,38.67,31.25,2,1.2,7.62,2.68,9.82,3.47,3-.31,6.49.38,9.43.66l4.21,1.2L415,208c1.75.07,7,.69,8.58-.39,5-.43,10.73-.77,15.73-1.61,5.68-2.24,11.75-3.74,17.38-5.82,10.15-4.78,20-10.54,26.92-18.74-.32-2.86-.3-24-.12-27.23.45-11.13,0-16.64,13.27-16v-2.06Z" style="fill:#fff"/><path d="M817.76,62.39V60.58c-12.15,0-31.25-1.09-43.54-.72l.25,2.61h.11v.15c1.09-.45,6.45,1.7,7.55,1.93a7.87,7.87,0,0,1,.93,10.59l-4,18.41c-4.23,16.61-11.79,36.83-15.57,53.63C754.64,126,738.64,93,729.4,71.56c-1-.16-3-.36-4-.42l1.39-1.71c.06-.45.12-2.12.52-2.43L723,57.49l-1.84-.2C718,65.16,709.6,85.88,705.26,92.83c-3.15,11.7-16.14,42.53-21.23,53.84-5.61-15.2-12.93-38.53-18.49-53.6l-6.39-17.86a8.41,8.41,0,0,1,1.15-9.56l5.77-3a7.4,7.4,0,0,1,2.63.35,13.11,13.11,0,0,1-.12-2.43h-.21l0-.39c-6.43.61-55,.41-62.46.33l-.57,2.57.87-.47h0c2.4-.78,8.9,2.64,11,3.54L625,74.59c3.54,8.17,16.29,43.53,19.62,52.56,4.58,15.2,12.74,32.47,16.74,47.83a206.73,206.73,0,0,1,12.11,33.53,8,8,0,0,1,2.86-.27c-1.45-16.9,31.32-82.21,36.9-98.52,6.64,15.25,16.47,33.35,21.88,49.09,8.33,14.8,15.72,34.1,22.11,49.84h2.83l0-.41h.16c.11-4.77,1.75-17.44,3.23-22a26.1,26.1,0,0,1-2.83-4.14,20.57,20.57,0,0,1,3.47,2c6.63-20.71,14.87-45,20.47-66l13.52-43.58a18.17,18.17,0,0,1,.85-1.84l5.12-6c2.67-2.34,10.47-3.34,13.84-3.69Z" style="fill:#fff"/><path d="M1034.73,129.37a12.28,12.28,0,0,0-3.59.74c.51-1.71,1.85-3.72,2.51-5.36a9.55,9.55,0,0,1,.46-2.48c-1-4.57-2.6-11.53-3.15-16.22-1.94-5.81-6.55-12.71-9-18.32l-4.3-5.33L1012,78.58l-4.32-5-5.8-3.09A94.87,94.87,0,0,0,983.92,63a53.15,53.15,0,0,0-12.59-3.08c-5.73-1.1-13.55-2.72-19.42-2.47a48.5,48.5,0,0,1-12.89,1c-7,2-15.85,3-22.82,5,4.68,1.46,11.06,4.16,14.94,7.24,3.23-1.75,10.17-3.54,13.74-4.47,3.44.59,10.39,1.27,13.86,1.48l7.06.16c3,1.69,9.05,5.18,11.94,7.1l5.46,4.67,4.43,5.63,4.78,5.55,3,6.66a147,147,0,0,1,4.24,21,57.46,57.46,0,0,1,1.42,14.26l.1,6.4-1.12,6.32a60.08,60.08,0,0,1-1.17,12.76c-2.42,5.18-4.91,12.6-7.35,17.77l-4.27,4.8c-2.35,2.54-6.78,7.94-8.88,10.7a109.53,109.53,0,0,0-12.72,5.79c-6,2-14.51,2.5-20.79,1.89-3.65-1-9.89-2.77-13.38-4.16l-5.81-3.92-4.82-5c-4-4.33-8.67-10.59-10.78-16.16-3.53-5.52-3.52-5.48-4-12l-2.36-6-.91-6.35-.71-6.38,1.08-6.42c-.85-8,1.45-17.44,1.85-25.45l1.81-6.15L910,95.56a81.8,81.8,0,0,1,7-12.47l-3.22-4.27A74.84,74.84,0,0,0,901,71.48c-7,3.34-13.44,10.14-18.81,15.6a78.47,78.47,0,0,1-6.38,12A60.66,60.66,0,0,0,872,112.34l-2.56,6.56c1,8.64-.73,18.88-.14,27.53.82,3.32,2.41,10,3.27,13.26l3.5,5.9,2,6.59c4.2,4.35,9.16,11,13.88,14.8l4.25,5.08,4.88,2.87a78.3,78.3,0,0,0,12.37,6.48c1.61.3,4.82,1.13,6.4,1.44,3.17.77,9.43,2.68,12.51,3.74,3.24.39,9.78,1,13,1.08l6.53-.79,6.56,1.37a53.16,53.16,0,0,1,12.87-2.46l6.29-1.6,6.66-.33,6.23-2.09,5.42-3.86c5.89-1.53,12.31-6,16.75-10l5-4.64,3.43-6c1.88-2.78,5.63-8.47,7.36-11.35a95,95,0,0,0,4.65-12.8c.17-3.38.95-10.18,1.39-13.53C1034.22,137.4,1034.7,131.5,1034.73,129.37Z" style="fill:#fff"/><path d="M964.25,126a88.16,88.16,0,0,0-2.34-13.3,112.49,112.49,0,0,1-3.81-13c-1.61-3-4.83-9-6.46-12a61.3,61.3,0,0,0-10-9.2l-4.53-4.72-5.79-3-.2-.13c-8.41-6.51-20.16-8.32-29.88-12h-6.6l-6.46-1.35-6.55,1.06c-5.77-1.1-13.53.32-19.25,1.14l-6.52.32-5.31,2.23a27,27,0,0,1-.11,5.39,26.45,26.45,0,0,1-2-4.53c-2.52,1.07-8.06,3-10.74,3.79l-5.43,3.77c-10.24,3.76-18.33,13.09-23.84,22.2l-2.39,6.58-3.76,6c-.5,3.48-2,10.28-3,13.65-1.48,13.18-1.14,28,3.58,40.54l2,6.49,3.73,5.69,3,6.15,4.36,5.25c4.24,5,9.44,9.7,15.75,12l5.36,3.78,6.17,2.23a60.41,60.41,0,0,0,18.84,5.09c5.72,1.22,13.7,1.39,19.5,2a78.57,78.57,0,0,1,13-1.68c3.18-.44,9.69-1.27,12.88-1.73l6.48-1,3-1.5c-5.25-.76-11.5-4.53-15.93-7.28l-5.52,2.85-6.95.92a52,52,0,0,1-20.73-1.31l-6.07-3.4c-6.39-2.65-6.51-2.73-11-8l-5.42-4.47-3-5.68-3.16-5.55a95.07,95.07,0,0,0-4.34-12.05,113,113,0,0,0-1.31-12.73c-.14-5.7-.17-13.48-1.23-19.11a70.36,70.36,0,0,0,1.59-12.69c1.48-5.48,3.42-13,5.38-18.35,1.48-2.81,4.7-8.34,6.48-11,2.51-2.41,7.2-7.61,9.39-10.31,8.05-5.54,16.69-8.06,26.48-7l7-.36A52,52,0,0,1,901,71.49a74.79,74.79,0,0,1,12.76,7.33c2.51,3.14,6.31,8.56,8.53,11.94,1.38,3.36,4.21,10.09,5.55,13.47l.29,7.31,2.05,6.92c0,5,.2,12.55.21,17.56a5.93,5.93,0,0,0,1.56-1.56c.6-.44,1.86-1.31,2.47-1.73l-.85,1.49v1.5a8.32,8.32,0,0,0-.84,2.7,6.88,6.88,0,0,1-1.25,3l-.21,1.47-1-.4a111.8,111.8,0,0,1-3.31,22c-1.61,2.77-4.59,8.5-5.92,11.41-.21.23-4.23,5.33-4.31,5.44,4.13,4.92,9.74,11.64,15.85,14.1a66.91,66.91,0,0,0,9-8.5l5.06-4.45,4-5.38,3.93-5.47,2.69-6.17c4-5.75,4-5.6,4.75-12.58C965,144.79,965.18,134.54,964.25,126Z" style="fill:#fff"/><path d="M151.83,113.74c-.48-6.23-3.88-12.91-6.93-18.25-4.47-9-12.52-16.26-20.56-22-4.48-2.16-9-5.66-13.94-7-4.79-1.74-10.19-2.45-14.93-4.62l-5.19-.59-5.17-.66A23.48,23.48,0,0,1,74.7,60.2c-4,.85-20,.59-24.3.61-7.9-.05-32.79.28-40.41-.58A51,51,0,0,1,0,60.8L.3,62.52H.39v.35c5.36-.87,10.14,3.44,14.06,6.5,1.23,2,1.19,5.76,1.64,8l.14.11h0a10.39,10.39,0,0,0,2,1c.74.58,2.3,1.67,3.09,2.19l-1.85.22-1.32,1a7.74,7.74,0,0,0-2.18.65c-.51,1.53-.52,6.23-.49,7.9a24.84,24.84,0,0,1,.74,6.9c-1.16,4-.28,9.91-.68,14.05l-.31,5.24c.21,1.41,1.09,5.7,1,7a56.92,56.92,0,0,1-.43,8.67c.09,1.08.53,4.66.43,5.66-1.55,4.44-.93,10.69-.58,15.28.61,4.5,1.18,11.32-.36,15.7,0,0,1,5.23.94,5.3l-.34,5.16a37.85,37.85,0,0,0,0,10.47c-1.7,5.4-2.21,9.77-8.32,11.78C6,201.71,2,203.11.39,202.71v.17l-.21,0-.18,2c4.75.13,16.17-.24,21.11-.11a25.37,25.37,0,0,0,8.34,0H43.26a48.12,48.12,0,0,0,10.39,0,35,35,0,0,1,6.12.71l5-.63c4.51-.09,10.64.49,15.14-.1,1.31-.06,5.78.19,6.91-.54C136.13,200.21,161.61,161.54,151.83,113.74Zm-37.71,28.75c-.53,4.38-.75,10.39-2.78,14.42-1.25,3.64-2,9.1-4.22,12.32a9.65,9.65,0,0,0,1.54,3c.3.88,1,2.67,1.38,3.53l-1.67-.85-1.63.07a7.45,7.45,0,0,0-2.23-.67c-.22,1.54-3.83,4.87-4.87,6a56.26,56.26,0,0,1-8,7.55l-4.4,3.12-5,1.93c-4.6,1.46-11,3.12-15.83,3.26l-5.06-.74-5.07.9a44.43,44.43,0,0,1-10.11-.35l-5.38.4c2.25-8.14-.07-17.44-.42-25.68l1.32-5.07-.94-5.07c.24-4.55,1.22-10.68.32-15.2l.39-5.07-.86-5.06c1.5-6.31-.19-13.91.61-20.27.31-4.53-.41-10.69-.55-15.21.07-2.52.53-7.63.92-10.13A95.88,95.88,0,0,1,41.2,69.4a47.57,47.57,0,0,0,10-.2l5,.82,5.06-.63a75.61,75.61,0,0,1,10.09.5l5,.47,4.8,1.58,5.07,1,4.55,2.43c4.66,4.3,9.95,9.64,13.22,15.13,1.06,2.17,3,6.65,3.83,8.92l2.17,4.37,1,4.78a47.79,47.79,0,0,1,2.79,19.23A79.22,79.22,0,0,1,114.12,142.49Z" style="fill:#fff"/><path d="M328.45,119.28l.19-2.1c-1.46-4.32-2.28-8.94-3.36-13.23a126.79,126.79,0,0,0-9.23-18.24l-1.6-1.41c-6.43-7.81-14.81-15.15-24-19.51a114.42,114.42,0,0,1-12.13-5,45.21,45.21,0,0,1-4.54-.74,7.55,7.55,0,0,1-1.82,2.56l-.56,1.52-1.14-1.09a6.15,6.15,0,0,0-2.15-4.23c-8.68-2-19.23-1.33-28.65-2.54-3.22.5-9.65,1.17-12.89,1.4A129,129,0,0,0,214,59.93c-17,6.35-31,16-41.1,30.89-1.6,5.1-4.51,9.72-5.93,15l-2.12,4.27a59.75,59.75,0,0,1-1.59,13.82c-1.08,8.74.84,18.5,1.94,27.11,1.84,6.1,4.92,13.14,6.88,19.17a119.08,119.08,0,0,1,8.51,10.64c1.91,1.43,4,3.77,5.87,5.28a5.42,5.42,0,0,0,1.64-2.61l1.11,1.1a6.48,6.48,0,0,0,2.29,4.49,13.68,13.68,0,0,0,1.87,2.82l-.39.06c1.35,1.64,6.67,3.75,8.63,4.53l5.68,3.34,4.89.81a62.44,62.44,0,0,1,7.73,2.83c6.26.79,13.31,1.11,19.47,2.71a41.77,41.77,0,0,1,13.11,0l6.5-.85a74,74,0,0,1,13-1.61,36.31,36.31,0,0,1,12.57-3.87,42.07,42.07,0,0,1,11.77-5.9,79.38,79.38,0,0,1,10.42-8C325.23,168.18,331.51,145,328.45,119.28Zm-33.56,18-.34,6.4-2.16,6.15v6.51l-2.78,5.84-1.51,6.25a92.19,92.19,0,0,1-7.27,10.47l-3.66,6a59.23,59.23,0,0,1-11.55,7.72,120,120,0,0,1-20.14,4.73,116.18,116.18,0,0,0-13.78-1.91l-6.75-2a66.75,66.75,0,0,1-11-8.67,69.88,69.88,0,0,1-13.43-22.28l-.81-6.4L197.52,150a126.48,126.48,0,0,0-1.45-12.73c.49-5.68,1.4-13.44.88-19.16l1.6-6.2.16-6.47,2.64-5.88a77.65,77.65,0,0,1,4.22-12.09l4.52-4.66L213.9,77c2.91-1.81,8.68-5.71,11.52-7.65l6.31-2.86,6.92-.57,6.82-1.86,6.82,1.88,7.12-.08,5.9,3.94,6.45,2.66A141,141,0,0,0,282,82.8L285.84,89l2.9,6.69,1.51,7C294.63,113.22,295.88,126.06,294.89,137.32Z" style="fill:#fff"/><path d="M1187.34,131.66a80.2,80.2,0,0,0-10-37.67c-3.7-4.16-7.13-8.63-11.12-12.63-6.83-5.27-14.26-10.88-22.72-13.44-12.06-4.89-28.68-5.83-43.4-5.87-7.32-.25-17.38-.7-24.7-.22l-1.21,1.31c-.14.38-.42,1.15-.56,1.52l-1.14-1.08-.22-1.3h0l0-.19a148.32,148.32,0,0,1-21.91-.43,86.21,86.21,0,0,1-16.77-.1l0,3c3.2-1.52,8.83,2,11.59,3.27.41.55,5.06,7.6,4.71,8.19a144.05,144.05,0,0,1-.72,16.47c.65,14.47,1.51,34.91-.22,49.35.28,10.18,1.59,22.72.64,32.91a172,172,0,0,1,.22,17.46l-4.49,7.84-8.85,4-3-.26.23,2.59c6.88.47,16.65-.92,23.49.21,0-1.78,1.24-3.7,1.75-5.39l1.24,1.87,1.82.71a8.52,8.52,0,0,0,2.43,2.13h0l.41.27a43.37,43.37,0,0,1,10.39.77c2.43-1.22,26.26-.66,29.44-.77,5.52.95,13.79.26,19.25-.9,31.67-3.78,56.8-23.69,62.47-55.82l-.16-.3-1.5-2.84,2.11-.92.25-1.68-.92-2.16.75-.45h0l.26-.16C1187.14,138.1,1188.09,134.55,1187.34,131.66Zm-34.66,11.14-.25,8.58L1150,159.6l-1.79,8.43-4.79,8-5.18,7.67-7.18,5.83a144.79,144.79,0,0,1-16.28,7.56c-4.35,0-13.16.34-17.49.63a84.39,84.39,0,0,0-16.59-.4,138.33,138.33,0,0,1-.24-23.47,152.6,152.6,0,0,1-.79-15.84l1.18-7.92-.34-7.92a146.66,146.66,0,0,0,.1-15.83,79.22,79.22,0,0,0-.88-15.84l1.32-7.92-1.3-7.91,1.42-7.92-1.36-7.92.35-8.19,8.7-.26a126.75,126.75,0,0,0,16.86,1.11l8.07.09,7.81,2.09,7.32,3.41,6.39,5a91,91,0,0,1,10,12.77c2.79,6.7,6.11,16,6.74,23.3.76,4,2,12.12,2.33,16.17Z" style="fill:#fff"/><path d="M6.06,28.83V.39h7.52a10.38,10.38,0,0,1,7.94,3.16q3,3.17,3,8.68v4.61c0,3.73-1,6.67-3,8.79a10.57,10.57,0,0,1-8.16,3.2ZM11.8,5.18V24.06h1.72c1.92,0,3.26-.5,4.05-1.51s1.19-2.75,1.23-5.23V12.38c0-2.65-.38-4.51-1.12-5.55a4.47,4.47,0,0,0-3.79-1.65Z" style="fill:#fff"/><path d="M128.39,16.52h-8.95v7.54H130v4.77H113.7V.39H130V5.18H119.44v6.71h8.95Z" style="fill:#fff"/><path d="M233,17.23h-8.93v11.6h-5.74V.39h15.74V5.18h-10v7.28H233Z" style="fill:#fff"/><path d="M337.12,16.52h-8.95v7.54h10.59v4.77H322.43V.39h16.29V5.18H328.17v6.71h8.95Z" style="fill:#fff"/><path d="M447,28.83h-5.74l-8.4-18.65V28.83H427.1V.39h5.74l8.42,18.67V.39H447Z" style="fill:#fff"/><path d="M536.63,28.83V.39h7.52a10.38,10.38,0,0,1,7.94,3.16q3,3.17,3,8.68v4.61c0,3.73-1,6.67-3,8.79a10.56,10.56,0,0,1-8.15,3.2Zm5.74-23.65V24.06h1.72c1.92,0,3.27-.5,4-1.51s1.19-2.75,1.23-5.23V12.38c0-2.65-.37-4.51-1.12-5.55a4.47,4.47,0,0,0-3.79-1.65Z" style="fill:#fff"/><path d="M659,16.52h-9v7.54H660.6v4.77H644.27V.39h16.29V5.18H650v6.71h9Z" style="fill:#fff"/><path d="M757.55,18.44H754.7V28.83H749V.39h9.16a9.31,9.31,0,0,1,6.67,2.24A8.34,8.34,0,0,1,767.14,9q0,5.67-4.12,7.93l5,11.64v.28h-6.17Zm-2.85-4.79H758a3,3,0,0,0,2.58-1.14,5,5,0,0,0,.86-3.06q0-4.27-3.34-4.27H754.7Z" style="fill:#fff"/><path d="M868.14,21.37a3.58,3.58,0,0,0-.89-2.63A10.29,10.29,0,0,0,864,16.89a15.07,15.07,0,0,1-6.15-3.79A7.66,7.66,0,0,1,856,8a7.2,7.2,0,0,1,2.55-5.77A9.63,9.63,0,0,1,865,0a9.76,9.76,0,0,1,4.67,1.1,7.72,7.72,0,0,1,3.16,3.12,9.39,9.39,0,0,1,1.1,4.57h-5.72a4.77,4.77,0,0,0-.85-3,3,3,0,0,0-2.45-1,3,3,0,0,0-2.35.89A3.33,3.33,0,0,0,861.73,8a3,3,0,0,0,.94,2.12,10.92,10.92,0,0,0,3.32,2,14.25,14.25,0,0,1,6,3.69,8.27,8.27,0,0,1,1.88,5.57,7.36,7.36,0,0,1-2.36,5.8,9.39,9.39,0,0,1-6.43,2.09,11.15,11.15,0,0,1-5-1.13,8.49,8.49,0,0,1-3.54-3.25,9.32,9.32,0,0,1-1.28-5h5.76a5.44,5.44,0,0,0,1,3.58,3.91,3.91,0,0,0,3.12,1.11Q868.15,24.55,868.14,21.37Z" style="fill:#fff"/><path d="M1077.05,17.17c0,3.81-.9,6.78-2.71,8.88a9.35,9.35,0,0,1-7.51,3.17,9.47,9.47,0,0,1-7.52-3.14c-1.82-2.09-2.74-5-2.77-8.78V12.44q0-5.85,2.71-9.15a10.28,10.28,0,0,1,15-.06c1.83,2.16,2.75,5.18,2.78,9.07Zm-5.77-4.77a11.68,11.68,0,0,0-1.09-5.72,4,4,0,0,0-6.78-.07,11.16,11.16,0,0,0-1.13,5.5v5.06a10.61,10.61,0,0,0,1.11,5.5,3.8,3.8,0,0,0,3.44,1.76,3.68,3.68,0,0,0,3.34-1.72,10.37,10.37,0,0,0,1.11-5.37Z" style="fill:#fff"/><path d="M1180.88,17.23H1172v11.6h-5.74V.39H1182V5.18h-10v7.28h8.93Z" style="fill:#fff"/></g></g></svg>