<svg xmlns="http://www.w3.org/2000/svg" viewBox="0 0 1187.63 153.35"><g id="Layer_2" data-name="Layer 2"><g id="Layer_1-2" data-name="Layer 1"><path d="M881.92,143.74c-76.19-.58-60.85-162.1,19.6-128.28a78.75,78.75,0,0,1,15.63-7.38c-18.87-6.82-47-7.21-66.58-1.19a26.21,26.21,0,0,1-.11,5.31,26.48,26.48,0,0,1-2-4.63c-31,9.61-50,37-49.38,69.94-2.84,62.56,65.9,87.45,118,69.47a76.72,76.72,0,0,1-15.52-7.38A45.26,45.26,0,0,1,881.92,143.74Z" style="fill:#fff"/><path d="M917.07,28.09c11,14.59,14.23,32.28,14,52.21a12.59,12.59,0,0,1,3.41-2.87l-.85,1.5v1.5a8.19,8.19,0,0,0-.84,2.69,6.88,6.88,0,0,1-1.25,3l-.21,1.47-.6-.25c-1.33,16.39-5.64,29.31-13.65,39.55a43,43,0,0,0,15.52,12.69c43-24,43-100.2,0-124.17A43,43,0,0,0,917.07,28.09Z" style="fill:#fff"/><path d="M1035,74a18.09,18.09,0,0,0-3.85.82c.51-1.71,1.85-3.71,2.51-5.36a8.47,8.47,0,0,1,.76-3.15C1029.88,10.82,964.7-8.31,917.15,8.08a76.57,76.57,0,0,1,15.42,7.35c92.28-35.5,91.58,160.14,0,124.17A76.72,76.72,0,0,1,917.05,147C971.25,165.53,1039.91,138.59,1035,74Z" style="fill:#fff"/><path d="M903,77.51c.07-21,4.46-37.15,14-49.42a42.9,42.9,0,0,0-15.55-12.63c-43.3,24.9-42.76,100,0,124.14a43,43,0,0,0,15.52-12.69C907.49,114.65,903.1,98.54,903,77.51Z" style="fill:#fff"/><path d="M901.52,15.46a42.9,42.9,0,0,1,15.55,12.63,43,43,0,0,1,15.5-12.66,76.57,76.57,0,0,0-15.42-7.35A78.75,78.75,0,0,0,901.52,15.46Z" style="fill:#fff"/><path d="M917.05,126.91a43,43,0,0,1-15.52,12.69A76.72,76.72,0,0,0,917.05,147a76.72,76.72,0,0,0,15.52-7.38A43,43,0,0,1,917.05,126.91Z" style="fill:#fff"/><path d="M607.14,109.17l0,.08H607l-6.36,13-8.89,11.37c-2.77,1.53-11.2,7.3-14.41,7.45-10.37,2.15-26.85,1-37.4,1V84.49h27.35c.66,0,1.3.09,1.93.18l6.7,2.49,5.74,6.58c.23,1.14,3.07,9.1,2.9,10.09h2.06c-.07-9.55.1-38.54.12-47.58l-2.8-.29c.78,1.35-4.28,13.11-4.71,14.57L567.83,75.8c-.89.16-26,0-26.89.06l-1.05-.07V20.71l.21-4.2c9.55-.17,25.87-.84,35.54-.4.46.25,14.31,5.6,13.78,6.29l5.16,14.18a10.16,10.16,0,0,1-.41,3,17.09,17.09,0,0,1,2.48-.11c.13-10.17,0-25.68,0-36l-.11,0V3.43c-.12,0-10.48,2.5-10.59,2.5l-.66.1-13.63.75c-11.21.31-34.16.47-45.63.38-.1.09-.71,1.65-.78,1.81a6.23,6.23,0,0,0-2.26,1.8,8.79,8.79,0,0,1-1.41-2.9l-1.05-.71H493.2v.43H493l-.12,1.67c1.86-.18,7,1.52,8.82,2.09l7,10.2c.15,10.23.39,24.17-.2,34.38,1.17,14.37.11,31.46-.37,45.82a89.64,89.64,0,0,1,.43,22.91c0,11.34,1.45,9.66-4.3,20.09-1.74.55-9.27,4.62-11,4.31a3.92,3.92,0,0,1-.21,1.52l.21,0v.52a90.55,90.55,0,0,1,11.53.51l5.26-.51c21.37.31,50.25-.22,71.76.12l.07-.12h0a26.94,26.94,0,0,1,3.34-4.89,26.31,26.31,0,0,1-.9,5.06c2.19,0,13.13.29,15.55.35,2.1-9,7.11-33.14,9.38-42.48Z" style="fill:#fff"/><path d="M489.32,80.8a85.76,85.76,0,0,0-18.54-.25l-1.72.25H439V81h-.26l-.1,2,3.36-.09,7.52,2.82c4.1,8,3.56,16.7,3.44,25.34.54,8.35-.8,18.12-7.79,23.67-7.11,6.72-18.13,7.89-27.46,8.51-26.82,3.18-43-24-45.46-47.75a43.43,43.43,0,0,1-4.3.78l1.17-1.44.3-1.59c.94-1.15,1.42-3,2.13-4.24-3.29-34.65,8.65-78.54,50.89-77.11,8.53-.37,17.74,1,24.94,5.87a20.58,20.58,0,0,1,8.7,4.61c1.93,2.23,5.82,5.86,7.55,8.27,2.47,5.57,6.33,13,7.8,18.93a14.08,14.08,0,0,1,2.33-.19c-.07-7.34-.19-19.11-.31-26.41a8.82,8.82,0,0,0-.05-4.27L473.34,14c-7.23-4-21-7.08-31.44-9.54-6.16-.57-13.15-.81-19.2-2-8.37.72-17.3.59-25.17,1.88-5.76,1.42-12.69,2.53-18.31,4.53-5.24,3-10.81,7.18-16.34,9.57-3.76,4.88-9.58,9.72-13.65,14.35-2.31,4.5-4.71,10.06-6.57,14.73L340.46,51l-1.4,6.6a73.87,73.87,0,0,1-2.27,13.29l.53,6.75c-.12,13.35,3.49,27,8.69,39,9.61,14.41,21.88,26,38.67,31.25,2,1.2,7.62,2.68,9.82,3.47,3-.3,6.49.38,9.43.67l4.21,1.19,6.88-.48c1.75.06,7,.68,8.58-.4,5-.43,10.73-.77,15.73-1.61,5.68-2.24,11.75-3.74,17.38-5.82,10.15-4.78,20-10.54,26.92-18.74-.32-2.85-.3-24-.12-27.23.45-11.13,0-16.64,13.27-16.05v-2Z" style="fill:#fff"/><path d="M817.76,7.1V5.28c-12.15,0-31.25-1.08-43.54-.72l.25,2.61h.11v.16c1.09-.46,6.45,1.69,7.55,1.93a7.86,7.86,0,0,1,.93,10.58l-4,18.41c-4.23,16.61-11.79,36.83-15.57,53.63-8.82-21.21-24.82-54.22-34.06-75.63-1-.16-3-.36-4-.42l1.39-1.7c.06-.46.12-2.12.52-2.43L723,2.2,721.17,2C718,9.87,709.6,30.58,705.26,37.54,702.11,49.23,689.12,80.06,684,91.37c-5.61-15.2-12.93-38.52-18.49-53.59l-6.39-17.86a8.42,8.42,0,0,1,1.15-9.57l5.77-3a7.4,7.4,0,0,1,2.63.35,13.07,13.07,0,0,1-.12-2.43h-.21l0-.38c-6.43.61-55,.4-62.46.32l-.57,2.57.87-.47v0c2.4-.79,8.9,2.64,11,3.53L625,19.3c3.54,8.16,16.29,43.52,19.62,52.56,4.58,15.19,12.74,32.46,16.74,47.83a206.62,206.62,0,0,1,12.11,33.52,8,8,0,0,1,2.86-.26c-1.45-16.9,31.32-82.22,36.9-98.53,6.64,15.26,16.47,33.35,21.88,49.09,8.33,14.8,15.72,34.11,22.11,49.84h2.83l0-.4h.16c.11-4.78,1.75-17.45,3.23-22a25.66,25.66,0,0,1-2.83-4.14,20.57,20.57,0,0,1,3.47,2c6.63-20.71,14.87-45,20.47-66l13.52-43.57a17.38,17.38,0,0,1,.85-1.85l5.12-6c2.67-2.33,10.47-3.33,13.84-3.68Z" style="fill:#fff"/><path d="M1034.73,74.07a12.61,12.61,0,0,0-3.59.74c.51-1.71,1.85-3.71,2.51-5.36a9.55,9.55,0,0,1,.46-2.48c-1-4.57-2.6-11.53-3.15-16.21-1.94-5.82-6.55-12.72-9-18.32l-4.3-5.33L1012,23.28l-4.32-5-5.8-3.09A94.87,94.87,0,0,0,983.92,7.7a53.64,53.64,0,0,0-12.59-3.08c-5.73-1.1-13.55-2.72-19.42-2.47a48.5,48.5,0,0,1-12.89,1c-7,2-15.85,3-22.82,5,4.68,1.45,11.06,4.15,14.94,7.24,3.23-1.76,10.17-3.55,13.74-4.48,3.44.59,10.39,1.27,13.86,1.48l7.06.16c3,1.69,9.05,5.19,11.94,7.11l5.46,4.66L987.63,30l4.78,5.55,3,6.66a146.55,146.55,0,0,1,4.24,21,57.46,57.46,0,0,1,1.42,14.26l.1,6.4-1.12,6.32A60.18,60.18,0,0,1,998.9,103c-2.42,5.18-4.91,12.59-7.35,17.76l-4.27,4.8c-2.35,2.54-6.78,7.94-8.88,10.7a111.22,111.22,0,0,0-12.72,5.79c-6,2-14.51,2.5-20.79,1.89-3.65-1-9.89-2.77-13.38-4.16l-5.81-3.91-4.82-5c-4-4.33-8.67-10.59-10.78-16.16-3.53-5.51-3.52-5.47-4-12l-2.36-6-.91-6.36-.71-6.38,1.08-6.42c-.85-8,1.45-17.44,1.85-25.44l1.81-6.16L910,40.26a81.22,81.22,0,0,1,7-12.46l-3.22-4.27A74.84,74.84,0,0,0,901,16.19c-7,3.33-13.44,10.13-18.81,15.59a78,78,0,0,1-6.38,12A60.75,60.75,0,0,0,872,57.05l-2.56,6.56c1,8.63-.73,18.88-.14,27.53.82,3.31,2.41,10,3.27,13.25l3.5,5.91,2,6.58c4.2,4.36,9.16,11,13.88,14.8l4.25,5.08,4.88,2.87a78.3,78.3,0,0,0,12.37,6.48c1.61.31,4.82,1.13,6.4,1.44,3.17.78,9.43,2.68,12.51,3.74,3.24.39,9.78,1,13,1.08l6.53-.79,6.56,1.37a53.16,53.16,0,0,1,12.87-2.46l6.29-1.6,6.66-.33,6.23-2.09,5.42-3.86c5.89-1.53,12.31-6,16.75-10l5-4.64,3.43-6c1.88-2.78,5.63-8.46,7.36-11.34a96,96,0,0,0,4.65-12.8c.17-3.38.95-10.18,1.39-13.54C1034.22,82.1,1034.7,76.2,1034.73,74.07Z" style="fill:#fff"/><path d="M964.25,70.75a88.07,88.07,0,0,0-2.34-13.31,112.49,112.49,0,0,1-3.81-13c-1.61-3-4.83-9-6.46-12a60.92,60.92,0,0,0-10-9.21l-4.53-4.72-5.79-3-.2-.13c-8.41-6.51-20.16-8.33-29.88-12h-6.6L888.2,2.06l-6.55,1.06c-5.77-1.1-13.53.32-19.25,1.14l-6.52.32-5.31,2.23a27,27,0,0,1-.11,5.39,26.11,26.11,0,0,1-2-4.53c-2.52,1.08-8.06,3.05-10.74,3.79l-5.43,3.77C822.05,19,814,28.32,808.45,37.43L806.06,44l-3.76,6c-.5,3.48-2,10.29-3,13.66-1.48,13.17-1.14,28,3.58,40.53l2,6.49,3.73,5.69,3,6.16,4.36,5.25c4.24,5,9.44,9.69,15.75,12l5.36,3.79,6.17,2.22a60.14,60.14,0,0,0,18.84,5.09c5.72,1.22,13.7,1.39,19.5,2a79.66,79.66,0,0,1,13-1.68c3.18-.44,9.69-1.26,12.88-1.72l6.48-1,3-1.5c-5.25-.76-11.5-4.53-15.93-7.28l-5.52,2.85-6.95.92a52,52,0,0,1-20.73-1.31l-6.07-3.4c-6.39-2.65-6.51-2.73-11-8l-5.42-4.46-3-5.69L839.21,115a95.63,95.63,0,0,0-4.34-12,113,113,0,0,0-1.31-12.72c-.14-5.7-.17-13.49-1.23-19.12a70.36,70.36,0,0,0,1.59-12.69c1.48-5.48,3.42-13,5.38-18.34,1.48-2.82,4.7-8.35,6.48-11,2.51-2.41,7.2-7.61,9.39-10.31,8.05-5.54,16.69-8,26.48-7l7-.36A52.4,52.4,0,0,1,901,16.19a74.18,74.18,0,0,1,12.76,7.34c2.51,3.14,6.31,8.55,8.53,11.94,1.38,3.36,4.21,10.09,5.55,13.46l.29,7.31,2.05,6.92c0,5,.2,12.56.21,17.56A5.93,5.93,0,0,0,932,79.16l2.47-1.73-.85,1.5v1.5a8.19,8.19,0,0,0-.84,2.69,6.88,6.88,0,0,1-1.25,3l-.21,1.47-1-.4a111.8,111.8,0,0,1-3.31,22c-1.61,2.78-4.59,8.5-5.92,11.42-.21.22-4.23,5.32-4.31,5.43,4.13,4.93,9.74,11.64,15.85,14.1a66.29,66.29,0,0,0,9-8.5l5.06-4.45,4-5.38,3.93-5.46,2.69-6.17c4-5.76,4-5.61,4.75-12.59C965,89.5,965.18,79.25,964.25,70.75Z" style="fill:#fff"/><path d="M151.83,58.44c-.48-6.23-3.88-12.91-6.93-18.24-4.47-9-12.52-16.27-20.56-22-4.48-2.16-9-5.67-13.94-7-4.79-1.75-10.19-2.45-14.93-4.63L90.28,6l-5.17-.66a23.34,23.34,0,0,1-10.41-.4c-4,.84-20,.58-24.3.6-7.9,0-32.79.28-40.41-.58A51,51,0,0,1,0,5.5L.3,7.23l.09,0v.36C5.75,6.7,10.53,11,14.45,14.07c1.23,1.95,1.19,5.76,1.64,8l.14.1h0a10.41,10.41,0,0,0,2,1c.74.57,2.3,1.67,3.09,2.19l-1.85.21-1.32.95a8.08,8.08,0,0,0-2.18.65c-.51,1.53-.52,6.23-.49,7.91a24.73,24.73,0,0,1,.74,6.89c-1.16,4-.28,9.91-.68,14.05l-.31,5.24c.21,1.42,1.09,5.7,1,7a56.92,56.92,0,0,1-.43,8.67c.09,1.08.53,4.66.43,5.66-1.55,4.44-.93,10.69-.58,15.28.61,4.5,1.18,11.33-.36,15.7,0,0,1,5.23.94,5.31L15.89,124a37.78,37.78,0,0,0,0,10.46c-1.7,5.4-2.21,9.77-8.32,11.78C6,146.42,2,147.81.39,147.42v.17l-.21,0-.18,2c4.75.13,16.17-.24,21.11-.11a25.37,25.37,0,0,0,8.34,0H43.26a47.49,47.49,0,0,0,10.39,0,34.13,34.13,0,0,1,6.12.72l5-.64c4.51-.09,10.64.49,15.14-.1,1.31-.06,5.78.19,6.91-.54C136.13,144.92,161.61,106.24,151.83,58.44ZM114.12,87.19c-.53,4.39-.75,10.4-2.78,14.43-1.25,3.63-2,9.09-4.22,12.31a9.54,9.54,0,0,0,1.54,3c.3.89,1,2.67,1.38,3.53l-1.67-.85-1.63.08a7.47,7.47,0,0,0-2.23-.68c-.22,1.54-3.83,4.88-4.87,6a56.26,56.26,0,0,1-8,7.55l-4.4,3.12-5,1.93c-4.6,1.46-11,3.12-15.83,3.26l-5.06-.74-5.07.9a44.43,44.43,0,0,1-10.11-.34L40.8,141c2.25-8.14-.07-17.44-.42-25.68l1.32-5.07-.94-5.07C41,100.67,42,94.55,41.08,90L41.47,85l-.86-5.06c1.5-6.3-.19-13.91.61-20.27.31-4.53-.41-10.68-.55-15.2.07-2.53.53-7.63.92-10.14a95.79,95.79,0,0,1-.39-20.17,48.24,48.24,0,0,0,10-.21l5,.83,5.06-.64a75.61,75.61,0,0,1,10.09.5l5,.47,4.8,1.58,5.07,1,4.55,2.42c4.66,4.3,9.95,9.65,13.22,15.13,1.06,2.18,3,6.65,3.83,8.92l2.17,4.38,1,4.77a47.84,47.84,0,0,1,2.79,19.23A79.22,79.22,0,0,1,114.12,87.19Z" style="fill:#fff"/><path d="M328.45,64l.19-2.09c-1.46-4.32-2.28-8.94-3.36-13.24a126.79,126.79,0,0,0-9.23-18.24L314.45,29c-6.43-7.8-14.81-15.15-24-19.5a118.8,118.8,0,0,1-12.13-5,42.55,42.55,0,0,1-4.54-.75,7.45,7.45,0,0,1-1.82,2.56l-.56,1.53-1.14-1.09a6.15,6.15,0,0,0-2.15-4.24c-8.68-2-19.23-1.33-28.65-2.54-3.22.51-9.65,1.17-12.89,1.41A126.16,126.16,0,0,0,214,4.63c-17,6.35-31,16-41.1,30.89-1.6,5.1-4.51,9.73-5.93,15l-2.12,4.26a59.75,59.75,0,0,1-1.59,13.82c-1.08,8.74.84,18.5,1.94,27.12,1.84,6.09,4.92,13.13,6.88,19.17a117.53,117.53,0,0,1,8.51,10.63c1.91,1.43,4,3.77,5.87,5.28a5.37,5.37,0,0,0,1.64-2.61l1.11,1.11a6.52,6.52,0,0,0,2.29,4.49,13.61,13.61,0,0,0,1.87,2.81l-.39.07c1.35,1.63,6.67,3.74,8.63,4.52l5.68,3.34,4.89.81a62.44,62.44,0,0,1,7.73,2.83c6.26.79,13.31,1.12,19.47,2.71a42.08,42.08,0,0,1,13.11,0l6.5-.84a74,74,0,0,1,13-1.62,36.08,36.08,0,0,1,12.57-3.86,42.1,42.1,0,0,1,11.77-5.91,79.38,79.38,0,0,1,10.42-8C325.23,112.89,331.51,89.69,328.45,64ZM294.89,82l-.34,6.41-2.16,6.14v6.51l-2.78,5.84-1.51,6.25a93.21,93.21,0,0,1-7.27,10.48l-3.66,6a58.78,58.78,0,0,1-11.55,7.72,121,121,0,0,1-20.14,4.74,114.17,114.17,0,0,0-13.78-1.92l-6.75-2a66.75,66.75,0,0,1-11-8.67,69.66,69.66,0,0,1-13.43-22.28l-.81-6.4-2.18-6.06A126.29,126.29,0,0,0,196.07,82c.49-5.69,1.4-13.45.88-19.17l1.6-6.2.16-6.47,2.64-5.87a76.94,76.94,0,0,1,4.22-12.09l4.52-4.67,3.81-5.85c2.91-1.81,8.68-5.71,11.52-7.65l6.31-2.86,6.92-.57,6.82-1.86,6.82,1.88,7.12-.08,5.9,3.95,6.45,2.66A142.85,142.85,0,0,0,282,27.5l3.82,6.22,2.9,6.69,1.51,7C294.63,57.93,295.88,70.77,294.89,82Z" style="fill:#fff"/><path d="M1187.34,76.37a80.2,80.2,0,0,0-10-37.68c-3.7-4.16-7.13-8.63-11.12-12.63-6.83-5.27-14.26-10.88-22.72-13.43-12.06-4.89-28.68-5.84-43.4-5.88-7.32-.25-17.38-.7-24.7-.22l-1.21,1.31-.56,1.53-1.14-1.09-.22-1.3h0l0-.19a148.32,148.32,0,0,1-21.91-.43,87,87,0,0,1-16.77-.09l0,3c3.2-1.52,8.83,2,11.59,3.27.41.56,5.06,7.6,4.71,8.19a144,144,0,0,1-.72,16.47c.65,14.48,1.51,34.91-.22,49.36.28,10.18,1.59,22.71.64,32.9a172,172,0,0,1,.22,17.46l-4.49,7.84-8.85,4-3-.26.23,2.59c6.88.47,16.65-.92,23.49.22,0-1.79,1.24-3.71,1.75-5.4l1.24,1.87,1.82.71a8.72,8.72,0,0,0,2.43,2.14h0c.07,0,.35.22.41.27a43.36,43.36,0,0,1,10.39.76c2.43-1.22,26.26-.66,29.44-.76,5.52.94,13.79.25,19.25-.91,31.67-3.77,56.8-23.69,62.47-55.82l-.16-.3c-.26-.5-1.26-2.37-1.5-2.84l2.11-.91.25-1.69c0-.08-.86-2-.92-2.16l.75-.45h0l.26-.16C1187.14,82.8,1188.09,79.25,1187.34,76.37ZM1152.68,87.5l-.25,8.59L1150,104.3l-1.79,8.43-4.79,8-5.18,7.68-7.18,5.82a143,143,0,0,1-16.28,7.56c-4.35,0-13.16.34-17.49.63a84.39,84.39,0,0,0-16.59-.4,138.32,138.32,0,0,1-.24-23.47,152.32,152.32,0,0,1-.79-15.84l1.18-7.92-.34-7.91a146.84,146.84,0,0,0,.1-15.84,79.26,79.26,0,0,0-.88-15.84l1.32-7.91-1.3-7.92,1.42-7.92-1.36-7.91.35-8.2,8.7-.25a125.08,125.08,0,0,0,16.86,1.1l8.07.09,7.81,2.09,7.32,3.41,6.39,4.95a91,91,0,0,1,10,12.77c2.79,6.7,6.11,16,6.74,23.3.76,4,2,12.12,2.33,16.17Z" style="fill:#fff"/></g></g></svg>