<svg xmlns="http://www.w3.org/2000/svg" viewBox="0 0 128 128"><path d="M111.73,58.13s14.15-13.26,9.85-21.56L98.1,13.39S87.28,5.24,66.25,25.83L66,30.5l6,5.92-8.44-1-3,11.48L54.1,47,52,48.35,50,46.8l-8.51-.08.5-5.07L38.1,39.31l10.52-8L49,25.39s-6.15-12.3-20.08-9.19l-1.74,2.61-2-.72L8.4,35.09A58.77,58.77,0,0,0,6,45.46a8.85,8.85,0,0,0,1.34.89s-1.17,1.77-1.56,2.3A43,43,0,0,0,6,58.2l6.45.67,5.88-4.78s-.55,34,5.23,43.78l10.77,5.44,1,5.78s7,6.52,23.78,7.11l6.34-4.11.44-3.67L84.28,106l4.23-3.22,1.33-6s1.29.13,2.78,3.22c2,4.28,5.17,8.56,8.78,8.89,6.17.56,12.66-10.06,12.66-10.06L118.28,97l-1.5-1.78,1.5-2.34-1.72-1.11.45-3.5-2.45.56-1.89-4.61-2.33,2.44-1.78-2.11-1.33,2.22-2.46-1.72s-1.34,5.63-.08,7.41c0,0-1.92,7-5.63.81-4.19-7-7.18-9-7.18-9L95.14,56.2l5.4-3.55,5.56,5.85Z" fill="#383129"/><path d="M46.25,29.09l.48-3.52s-3.82-9.74-17.3-7.37l-1.18,2.37L25.88,20,10.1,35.83s-2.59,5.93-2.37,9.48l2.19-1L7.36,48.57s-.71,4.67.35,7.9L12,57,22,46.13l2.45.7Z" fill="#b57c32" stroke="#38302a" stroke-linecap="round" stroke-miterlimit="10"/><path d="M46,29l.51-3.44s-4.17-9.36-16.91-7.07l-1.49,2.77-2.15-1s-3.74,9.7-.22,16.85L8.13,56l3.71.47L23.51,44.29l4.8-.84Z" fill="#875e26"/><path d="M28.47,43.37l-4.65.94,6.35-6.07c-4.37-10,.14-15,.14-15L26,20.28l2.35.57,1.29-2.38L32,21.91C43.31,21.45,46,29,46,29ZM7.65,48.65l7.58-9.78-1.67.9L8,44.84l2.64-1.15Z" fill="#5c421f"/><path d="M107.21,93.18s-1.63-3.35-1.37-5a6.91,6.91,0,0,1,2.25,3.06,6.79,6.79,0,0,1,.6-3.66A19.52,19.52,0,0,1,110,91.42a11.71,11.71,0,0,1,1.83-3.8,17.4,17.4,0,0,1-.2,3.75A4.28,4.28,0,0,1,113.1,90a7.21,7.21,0,0,1,0,2.21,4.32,4.32,0,0,1,2-1.34s-.66,2.71-1.74,3.24a4.5,4.5,0,0,1,3,0s-1.58,1.39-2.28,1.43c0,0,1.07,0,1.43.5C115.51,96,108.51,98.3,107.21,93.18Z" fill="#b59264"/><path d="M89.23,93.54s2.5-.62,6.55,8.44c6.19,13.82,16.84-5.7,16.84-5.7s-2.82-4.15-5.67-2.82c-.74,2.22-3.83,6.53-5.89,6.19-3-.5-4.16-10.89-10.72-12.5" fill="#67492c" stroke="#383129" stroke-miterlimit="10" stroke-width="0.6"/><path d="M86.69,100.5l6.82-55.7L78.25,40.65,76,41.54,73.65,39l-8-1.48L63.06,50.2,61.9,48.87l-8.84.52L51.73,51l-1.19-1.78-11.92-.63s.63-4.15.92-5.3l-3.07-1.4L22,44.94s-4.74,27,3.11,51.26L34.47,101l2-1s.37,5.61.87,6.83A45,45,0,0,0,59.15,113l4-2.67.27-3.78,9.64-2,1.56-1.48,1.11,1,8-1.48S86.32,100.87,86.69,100.5Z" fill="#b57c32" stroke="#38302a" stroke-linecap="round" stroke-miterlimit="10"/><path d="M100.62,48.2l7,7.34h3.11s8.3-7.06,9.21-14a8.39,8.39,0,0,0,.07-1.66c0-.45-.8-.31-1.17-.13a5.18,5.18,0,0,0,.67-2.28l-23-22.66s-6.34-4.11-16.45,3.89l1,1.72-2.39-.72S70.45,23.59,68,27.76L68.42,30,91.35,52l2.82,1.05Z" fill="#b57c32" stroke="#38302a" stroke-linecap="round" stroke-miterlimit="10"/><path d="M107.73,55.26l3-.06s8.44-7,9.28-15.37h-1.42l.67-1.94s-3.59-5.45-16.56,5l-11,8.71,2.47.89L100.53,48Z" fill="#875e26"/><path d="M107.73,55.26s7.77-5.5,9.14-12.5c0,0,0-7.74-12.42,2.11V41.59L80.72,18.52l-.25.2,1.22,2.16L80,20.38l22.85,22.35L103,45.2l-.35,1.24L100.53,48" fill="#5c421f"/><path d="M92,52.81l-5.75,47.42L83.74,102,89,50.45l2.17,2.09Zm-30.29-3.4C56,72.18,59,112.52,59,112.52l3.65-2.43.21-3.89-2.23.52C57.78,73.17,63.13,51,63.13,51Zm-25.31-7C31.68,53.74,32.84,74,32.84,74c-6.37,3.93.67,10.74.67,10.74l1,15.74,2.36-1.26c-4-45.78-.67-50.54-.67-50.54l1.89.14L39,43.61" fill="#785629"/><path d="M61.76,49.39s-5.46,24.33-2.86,63a41.21,41.21,0,0,1-21.07-5.93c-1.18-5.43-4.11-51.41-1.51-57.57l14,.64L51.74,52l1.55-2Z" fill="#a4712d"/><path d="M29.12,38l-2.39-.64m82.59,63.88c1.22-3.82-1.81-6.71-1.81-6.71m-3.45,5.13s1.74,3.8-.18,6.21m-2.6-5.74s-2.51,2.85-5.51,1.48m-4-6.67s2.28-2.11,4.84-.7" fill="none" stroke="#38302a" stroke-linecap="round" stroke-miterlimit="10" stroke-width="0.4"/><path d="M74.48,102.52l-1.64,1.58a13.11,13.11,0,0,1-2.06-5.18" fill="#785629"/><path d="M109.91,96.91a15.43,15.43,0,0,0-2-2.84C111,93.73,110,97.05,109.91,96.91Zm-5.51,2.27s2.77,2.34,4-.9c.39-1-1.29-2.86-1.29-2.86C106.94,96.21,104.4,99.18,104.4,99.18Zm-.91.51s-1.22.86-1.68.71c-.11.7-1.44,1.7-1.44,1.7C104.66,102.8,103.49,99.69,103.49,99.69Zm-9.66-6.45a3.23,3.23,0,0,1,1.71-.08c.85.46-1.85-2.62-3.59-3.77S93.83,93.24,93.83,93.24Zm1.57,1.44s3,5.94,3.55,6.12,1.56-.63,1.56-.63c-1.37-.34-3.76-5.32-3.76-5.32A2.47,2.47,0,0,0,95.4,94.68Z" fill="#806143"/><path d="M110.06,92.87c-.16-.58,1.42-4.17,1.42-4.17C111.78,90.87,110.23,93.45,110.06,92.87Zm-1.39-4.28s-.8,2.83-.22,3.53S109.42,90.51,108.67,88.59Zm-2.64.33A10,10,0,0,0,107,92C107.51,92.56,107.53,90.48,106,88.92Z" fill="#d6b385"/><path d="M109,37.65c-6.45-.45-10.47-9.23-11.65-13.89s-6.67-9.48-6.67-9.48,4.37.59,4.74.74,22.3,21.4,22.3,21.4C114.8,34.39,112.08,35.87,109,37.65ZM10.47,36.5c-1,1.68-1.85,7-1.85,7s3.61-4,6.15-5.3c9.09-4.69,8.83-4.94,8.7-5.48-.63-2.72,1.3-10.89,1.3-10.89S11.25,35.13,10.47,36.5ZM36.36,49c3.55,4.89,6.16,14.4,3.81,18.33C32.73,79.76,38,106.17,38,106.17l7.47,3.56s-12.36-14.56-.8-30.27,5.74-29.89,5.74-29.89m7.7,28.24L57.73,86s-5.11,1.94-.06,6.5l.56,19.33s-13-3.44-9.83-20.77C49.12,87,53.56,78.37,58.06,77.81ZM86.51,48.12l2.36,2.22-5.1,51.82-7.93,1.63-5.06-4.87S61.4,65.45,86.51,48.12ZM22.12,57.48c-.72,15.61,9.33,41.28,9.33,41.28L25.56,95.7C18.84,76,22.62,46.6,22.12,57.48Z" fill="#c49852" opacity="0.56"/><path d="M107.88,42.54c8.85-5.84,9,0,9,0l.68,0-.76.57A11.51,11.51,0,0,1,114.63,48C114.78,45.42,113.67,41.34,107.88,42.54ZM32,21.91l-2.32-3.44-1.29,2.38L26,20.28l4.32,2.92c-3.25,4.31-1.5,11-1.5,11,.39-8.38,14.19-9,14.19-9C38.73,21.37,32,21.91,32,21.91Zm3.7,62.55-.51-9.7C28.8,77.87,35.65,84.46,35.65,84.46Z" fill="#42301b"/><path d="M91.65,51.63l-22.81-22-.22-1.89s3.94-5.17,9.39-7.11l-6.5,6.61,4,5.39ZM82.59,18.29l4.72-3.2c-2.53.64-6.59,3.43-6.59,3.43l3,2.9ZM66,38.28s-6,18-6,42.66C63.28,50.42,66.32,43,66.32,43l3-2.52,4-1ZM49.73,49.54l-13.41-.63s-2.15,6.9-1.2,18.63l1-12.84,2.94-4.16Zm-13.48-7L22.43,45.42S21,55.83,21.25,57.83l2.55-9L26,45.94ZM25.78,20.81,10.56,36,8.78,41.92l2.78-5.61Z" fill="#e6db92"/></svg>