<svg xmlns="http://www.w3.org/2000/svg" viewBox="0 0 128 128"><path d="M43.42,116.68,86.09,64.46S113,62.9,103,40.68l12-9.56S110.53,3.57,81.2,7.57L76.38,19.42s-23.26-4.3-19,21c0,0-30.67,38-40,52.22-3.42,5.21-8.3,16.89.89,24S39.72,120.38,43.42,116.68Z" fill="#432a3d"/><path d="M83.75,59.9,40.2,112.68s-9.69,6.88-18.67-.56c-5-4.11-4.33-12-2.22-16L61,42.23S57.86,18.68,77.2,23.79s24.44,20.44,24,24S94.64,63.46,83.75,59.9Z" fill="#bd86ba"/><path d="M68.6,33.05c2.59,3,13.41-.45,20.08,13.7,4.91,10.43,10,3,10.3-1.7.37-6.89-21-27.56-31-19.78C65.49,27.23,66.52,30.64,68.6,33.05Z" fill="#d6abd0"/><path d="M85.64,11.57,77.42,27.64S78.86,39,96.68,41l12.59-11.7S105.42,11.2,85.64,11.57Z" fill="#835532"/><path d="M108.25,28.9a24.61,24.61,0,0,1-5.78-.63c7.17-1.22-9.87-10.63-4.24-1.51C89.77,22.63,87,13.83,86.48,12.23,105,12.23,108.25,28.9,108.25,28.9Z" fill="#ad7f5a"/><path d="M44.64,103,33.31,84.23,63.53,43.79s-1.3-4.45.41-7.78c0,0,7.7,20.22,31.26,17.85,0,0-3.78,5.41-13.11,4.08Z" fill="#a66a97"/><path d="M64.53,79s-16.38,23.85-24,29.82a11.8,11.8,0,0,1-14.44-.15c-3.71-2.91-3.93-8.45-2.56-11.89l19.83-26S59.2,68.05,64.53,79Z" fill="#b31917"/><path d="M43.53,70.9S54.75,83,64.53,79C64.53,79,60,68.29,43.53,70.9Z" fill="#ea553b"/><path d="M88,25.46c-.06,7.3-7.36,6.37-7,.46C81.58,17,88,17.61,88,25.46ZM87.2,38.53,95,41.18S95.35,33.79,87.2,38.53Z" fill="#5e3e24"/><path d="M73.09,34.46c3.66,4.55-.54,8.45-3.34,4.55C65.53,33.12,69.15,29.56,73.09,34.46ZM43.55,73c-2.51,3.39.72,6.9,4.31,3,2.46-2.65,16-20.91,16.56-22.78,1-3-1.69-5-4.74-1.34C58.51,53.28,44.63,71.53,43.55,73Zm-23.43,29.9c-.17,5.26,6.39,4.93,6.26-1.43C26.25,94.62,20.38,94.94,20.12,102.89Z" fill="#fff"/><path d="M96,41.72S81.72,41,77.42,27.64" fill="none" stroke="#38302a" stroke-linecap="round" stroke-miterlimit="10" stroke-width="2"/><path d="M62.23,80.9s-19.67,25.45-22.51,27.26-9.21,1.6-11.49-.1c0,0,10.3,1,27.93-27.09C58.83,82.09,62.23,80.9,62.23,80.9Z" fill="#911631"/></svg>