<svg xmlns="http://www.w3.org/2000/svg" viewBox="0 0 128 128"><path d="M104.38,53.22,113.86,60s-6.07,55-60.29,50.82c0,0-53.19-8.74-51.26-52.45,0,0,5.11-8.89,40.37-15.11,0,0,.89-6.67,6.78-4,0,0-3.56-7.55,5-10.22,0,0,12.59-3.56,13.48,9.18,0,0,10.59-3.4,9,5l12,3.33S95.64,23,100.53,18.85c3.75-3.18,13.34-1.92,17.26.15,4.22,2.22,11.92,11.41,5.48,19.33-5.48,6.74-10,.67-10,.67Z" fill="#2e2938"/><path d="M7.35,58.85C3.2,61.22,13.12,105.74,60,105.29s48.22-44,48.22-44C105,57.37,60,28.74,7.35,58.85Z" fill="#a5d6ce"/><path d="M11.32,57c-3.63,1.9-5.27,4.71,1.06,8.36-.89,3.92,4.45,14.51,4.45,14.51S16,67.74,22.09,69.76c7.83,2.6,19.86,4.18,37.16,5,36.8,1.72,47.15-6.22,48.39-13.18C108.05,59.25,63.46,29.74,11.32,57Z" fill="#e3efde"/><path d="M100.12,61C89.9,48.07,41,44.4,15.57,58.74,3.57,65.5,96.68,76,100.12,61Z" fill="#712410"/><path d="M94.53,61.48l18.15-28s3.93,8.08,7.44,3c7.89-11.48-12-17.74-16.55-14.41S88.9,58.74,88.9,58.74Z" fill="#97b0bf"/><path d="M86.76,53.89c-4.35-2.07-14.48-.62-12,.46C80.24,56.69,91.1,56,86.76,53.89ZM54,62.55c-1.25-.84-.65-1.66,1.08-2.34a31.09,31.09,0,0,1-8.5-1.58c-.41,2.51-14,3.27-21.27-.22-4.09-2,12.65-5.3,19.68-1.53,0,0,21.73-6,20,1.66,4.9-.26,10.3.08,13.92,1.39C87.05,62.85,66,70.63,54,62.55ZM40.27,63.83c-2.24-1.13,7-3.3,10.89-1.1S45.1,66.29,40.27,63.83Zm40.08.81c-2.28-1.19,7.2-3.55,11.11-1.24S85.26,67.2,80.35,64.64Zm-62.5-4.45c-1.51-.73,4.71-2,7.31-.61S21.12,61.78,17.85,60.19Z" fill="#581111"/><path d="M63.72,57.74S79.93,44.48,72.9,40.33c-1.94-1.15-6.55-.48-8.11,6.18,0,0,4-16.44-8.44-14.89,0,0-7.89,2-1.6,13.3,0,0-7.52-4.74-9,1.26C45.79,46.18,44.05,53.74,63.72,57.74Z" fill="#3d9651"/><path d="M77.51,54.29s6.47,1.15,8.06.63C87.87,54.18,82.46,46.26,77.51,54.29Zm-43.61-4c-7.55,0-9.56,8.43-2.89,9.11,4.74.48,10.56,1.11,13.23-1.11C44.24,58.29,41.46,50.29,33.9,50.29ZM78.12,62C77.06,64,66,67.8,56.46,62a14.06,14.06,0,0,1,1.34-2.92c-3.71.53-9.87-.67-8.71-2.07,0,0,5.2-8,10.9-.68a9,9,0,0,1,7.5-2.41,17.14,17.14,0,0,1,7.25,2.42C77.72,58.22,78.79,60.7,78.12,62Z" fill="#8f3b14"/><path d="M61.57,58.07c-1.06-.59,2.78-3.72,4.61-2.5S63.85,59.35,61.57,58.07ZM54.39,54c-1.35-.06-3.59,1.79-2.82,1.79,1.65,0,4.17-1.72,2.82-1.79M33,51.41c-1.89-1.25-5.24,2.71-4.16,3.3,2.32,1.29,6-2,4.16-3.3m48.69,0c-.92-.09-2.38,1.26-1.86,1.28,1.12,0,2.77-1.2,1.86-1.28" fill="#edc7ad"/><path d="M48.35,44.9c2.42-1.67,8,1.5,8,1.5-5.78-10.59.44-13.26.44-13.26s-2.22,7.3,1.19,12.37c0,0,5,7.19,2.15,9.82,0,0-4.86-5.74-7.67-3.67S45.61,46.79,48.35,44.9Zm21.88-4c-5.48,1-4.85,10.26-4.85,10.26C66.12,47.53,75.72,39.87,70.23,40.9Z" fill="#348045"/><path d="M54.08,36.28c-.91.33.5-3.13,2.15-3.62S56.05,35.57,54.08,36.28Zm-5.79,8.28c-.79.13-1.24,1.87-.8,1.76C48.43,46.1,49.09,44.43,48.29,44.56Zm20.18-2.85c-1.32.49-2.49,3.27-1.76,3C68.27,44,69.78,41.23,68.47,41.71Z" fill="#82c072"/><path d="M94.42,61.48s16.9-39.76,23.52-34.26c2.63,2.18,2.44,6.94,2,8.52-2,6.66-7.39-2.06-7.39-2.06L96.64,61Z" fill="#72848f"/><path d="M112.86,33.22s1.79-2.6,3-2.85c1.55-.31,3.75,1.58,2.88,4.85C117.12,41.33,112.86,33.22,112.86,33.22Zm-7.46-.85c4.67-2.47,3.07-8.91-1.11-6.08C102.4,27.57,99.81,35.32,105.4,32.37Z" fill="#56646c"/><path d="M107.9,26.51a5.26,5.26,0,0,0-3.67,6.34s-3.81,1.52-1.48-4.45C105,22.59,107.9,26.51,107.9,26.51Z" fill="#72848f"/><path d="M109.83,32.29a10.15,10.15,0,0,1,2.29-2.7m-9.64-.33c-1.41,3.09.5,3.67.5,3.67" fill="none" stroke="#c0dfed" stroke-linecap="round" stroke-miterlimit="10" stroke-width="0.4"/><path d="M103.64,71.29S101.12,102.7,57.42,103c0,0,28.3-9,29-25.63C86.46,77.37,94.16,78.25,103.64,71.29Z" fill="#89bdb5"/></svg>