<svg width="22" height="25" viewBox="0 0 22 25" fill="none" xmlns="http://www.w3.org/2000/svg">
<path d="M14.5126 11.876C14.5126 12.6385 13.9501 13.2635 13.2376 13.2635C12.5376 13.2635 11.9626 12.6385 11.9626 11.876C11.9626 11.1135 12.5251 10.4885 13.2376 10.4885C13.9501 10.4885 14.5126 11.1135 14.5126 11.876ZM8.67512 10.4885C7.96262 10.4885 7.40012 11.1135 7.40012 11.876C7.40012 12.6385 7.97512 13.2635 8.67512 13.2635C9.38762 13.2635 9.95012 12.6385 9.95012 11.876C9.96262 11.1135 9.38762 10.4885 8.67512 10.4885ZM21.8751 2.57598V25.001C18.726 22.2181 19.7331 23.1393 16.0751 19.7385L16.7376 22.051H2.56262C1.15012 22.051 0.00012207 20.901 0.00012207 19.476V2.57598C0.00012207 1.15098 1.15012 0.000976562 2.56262 0.000976562H19.3126C20.7251 0.000976562 21.8751 1.15098 21.8751 2.57598ZM18.3126 14.426C18.3126 10.401 16.5126 7.13848 16.5126 7.13848C14.7126 5.78848 13.0001 5.82598 13.0001 5.82598L12.8251 6.02598C14.9501 6.67598 15.9376 7.61348 15.9376 7.61348C12.9683 5.98608 9.4804 5.98579 6.60012 7.25098C6.13762 7.46348 5.86262 7.61348 5.86262 7.61348C5.86262 7.61348 6.90012 6.62598 9.15012 5.97598L9.02512 5.82598C9.02512 5.82598 7.31262 5.78848 5.51262 7.13848C5.51262 7.13848 3.71262 10.401 3.71262 14.426C3.71262 14.426 4.76262 16.2385 7.52512 16.326C7.52512 16.326 7.98762 15.7635 8.36262 15.2885C6.77512 14.8135 6.17512 13.8135 6.17512 13.8135C6.35901 13.9422 6.66223 14.109 6.68762 14.126C8.79749 15.3075 11.7945 15.6946 14.4876 14.5635C14.9251 14.401 15.4126 14.1635 15.9251 13.826C15.9251 13.826 15.3001 14.851 13.6626 15.3135C14.0376 15.7885 14.4876 16.326 14.4876 16.326C17.2501 16.2385 18.3126 14.426 18.3126 14.426Z" fill="url(#paint0_linear)"/>
<defs>
<linearGradient id="paint0_linear" x1="10.9376" y1="0.000976562" x2="10.9376" y2="25.001" gradientUnits="userSpaceOnUse">
<stop stop-color="#AA3AC8"/>
<stop offset="1" stop-color="#7384E0"/>
</linearGradient>
</defs>
</svg>
