<svg width="22" height="22" viewBox="0 0 22 22" fill="none" xmlns="http://www.w3.org/2000/svg">
<path d="M0 0.000976562V21.876H21.875V0.000976562H0ZM18.1738 5.18164L17.002 6.30469C16.8994 6.38281 16.8506 6.50977 16.8701 6.63184V14.8984C16.8506 15.0254 16.8994 15.1523 17.002 15.2256L18.1494 16.3486V16.5977H12.3877V16.3584L13.5742 15.2061C13.6914 15.0889 13.6914 15.0547 13.6914 14.8789V8.19434L10.3906 16.5732H9.94629L6.10352 8.19434V13.8096C6.06934 14.0439 6.15234 14.2832 6.31836 14.4541L7.86133 16.3242V16.5732H3.47656V16.3242L5.01953 14.4541C5.18555 14.2832 5.25879 14.0439 5.21973 13.8096V7.31543C5.23926 7.13477 5.1709 6.95898 5.03418 6.83691L3.66211 5.18164V4.93262H7.9248L11.2158 12.1592L14.1113 4.9375H18.1738V5.18164Z" fill="url(#paint0_linear)"/>
<defs>
<linearGradient id="paint0_linear" x1="10.9375" y1="0.000976562" x2="10.9375" y2="21.876" gradientUnits="userSpaceOnUse">
<stop stop-color="#AA3AC8"/>
<stop offset="1" stop-color="#7384E0"/>
</linearGradient>
</defs>
</svg>
