<svg width="25" height="25" viewBox="0 0 25 25" fill="none" xmlns="http://www.w3.org/2000/svg">
<path d="M12.1095 0.000976562C5.42004 0.000976562 0.00012207 5.4209 0.00012207 12.1104C0.00012207 18.7998 5.42004 24.2197 12.1095 24.2197C18.799 24.2197 24.2189 18.7998 24.2189 12.1104C24.2189 5.4209 18.799 0.000976562 12.1095 0.000976562ZM18.0568 8.29688L16.0695 17.6621C15.923 18.3262 15.5275 18.4873 14.9757 18.1748L11.9484 15.9434L10.4884 17.3496C10.3273 17.5107 10.1906 17.6475 9.87805 17.6475L10.0929 14.5664L15.7032 9.49805C15.9474 9.2832 15.6495 9.16113 15.3273 9.37598L8.39368 13.7412L5.4054 12.8086C4.75598 12.6035 4.74133 12.1592 5.54211 11.8467L17.2169 7.34473C17.7589 7.14941 18.2325 7.47656 18.0568 8.29688Z" fill="url(#paint0_linear)"/>
<defs>
<linearGradient id="paint0_linear" x1="12.1095" y1="0.000976562" x2="12.1095" y2="24.2197" gradientUnits="userSpaceOnUse">
<stop stop-color="#AA3AC8"/>
<stop offset="1" stop-color="#7384E0"/>
</linearGradient>
</defs>
</svg>
