<svg width="25" height="21" viewBox="0 0 25 21" fill="none" xmlns="http://www.w3.org/2000/svg">
<path d="M22.4302 5.06123C22.446 5.2833 22.446 5.50542 22.446 5.72749C22.446 12.5009 17.2906 20.3055 7.86802 20.3055C4.96509 20.3055 2.26841 19.4647 0 18.0054C0.412451 18.053 0.808984 18.0688 1.2373 18.0688C3.63257 18.0688 5.83755 17.2599 7.59834 15.8798C5.3458 15.8322 3.45811 14.3569 2.80771 12.3265C3.125 12.374 3.44224 12.4058 3.77539 12.4058C4.2354 12.4058 4.69546 12.3423 5.12373 12.2313C2.77603 11.7554 1.01519 9.69321 1.01519 7.20273V7.13931C1.69727 7.52002 2.49048 7.75796 3.33115 7.78965C1.95107 6.86958 1.04692 5.29917 1.04692 3.52251C1.04692 2.57075 1.30068 1.69829 1.74487 0.936865C4.26709 4.046 8.05835 6.07642 12.3096 6.29854C12.2303 5.91782 12.1827 5.52129 12.1827 5.12471C12.1827 2.30107 14.4669 0.000976562 17.3064 0.000976562C18.7816 0.000976562 20.1141 0.619629 21.05 1.61899C22.208 1.39692 23.3184 0.968604 24.302 0.381689C23.9212 1.57144 23.1122 2.5708 22.0494 3.20527C23.0805 3.09429 24.0799 2.80869 24.9999 2.41216C24.302 3.42734 23.4295 4.33149 22.4302 5.06123Z" fill="url(#paint0_linear)"/>
<defs>
<linearGradient id="paint0_linear" x1="12.5" y1="0.000976562" x2="12.5" y2="20.3055" gradientUnits="userSpaceOnUse">
<stop stop-color="#AA3AC8"/>
<stop offset="1" stop-color="#7384E0"/>
</linearGradient>
</defs>
</svg>
